<svg xmlns="http://www.w3.org/2000/svg" xmlns:xlink="http://www.w3.org/1999/xlink" width="500" zoomAndPan="magnify" viewBox="0 0 375 374.999991" height="500" preserveAspectRatio="xMidYMid meet" version="1.0"><defs><clipPath id="2694fb5cbf"><path d="M 32.035156 136 L 331.855469 136 L 331.855469 303.507812 L 32.035156 303.507812 Z M 32.035156 136 " clip-rule="nonzero"/></clipPath></defs><g clip-path="url(#2694fb5cbf)"><path stroke-linecap="butt" transform="matrix(0.522876, 0, 0, 0.522876, 31.854462, 71.666515)" fill-opacity="1" fill="#094d00" fill-rule="nonzero" stroke-linejoin="miter" d="M 541.493475 170.872716 C 565.773262 264.510516 539.267205 366.440798 538.89367 368.009646 C 538.960907 367.51658 539.551092 360.187819 539.551092 360.187819 C 547.335565 297.291965 528.367449 261.813592 528.367449 261.813592 C 541.172235 316.230199 517.542399 347.263502 503.684243 360.187819 C 498.492104 365.028835 494.629751 369.160135 494.629751 369.160135 C 494.226333 369.160135 493.875209 362.630739 493.576381 360.187819 C 484.260414 283.381514 528.352507 185.552649 528.352507 185.552649 C 500.14313 210.62433 483.05763 292.219357 475.542102 337.118286 C 484.499476 261.454999 469.692541 226.611636 469.692541 226.611636 C 475.542102 289.888497 460.847228 341.817359 454.676427 360.187819 C 453.129991 364.819656 452.091563 369.160135 452.091563 369.160135 C 451.374376 369.160135 450.739366 362.817507 450.126768 360.187819 C 439.52584 314.452171 444.762803 201.674427 444.762803 201.674427 C 434.244052 227.978775 427.908895 282.036787 424.524667 321.272924 C 424.547079 254.753777 403.688874 214.86769 403.688874 214.86769 C 425.690096 299.936594 396.352643 355.668044 396.352643 355.668044 C 402.217145 279.4071 381.687651 260.341864 381.687651 260.341864 C 396.85318 291.905587 362.622415 354.218727 362.622415 354.218727 C 349.421682 272.08581 381.687651 156.207724 381.687651 156.207724 C 362.151761 183.737268 350.684231 252.639568 344.677785 302.738108 C 344.035304 239.102653 317.462011 214.86769 317.462011 214.86769 C 344.169777 279.4071 317.155712 358.60403 317.155712 358.60403 C 320.091699 282.343086 301.018992 245.661931 301.018992 245.661931 C 303.417088 279.332393 276.276021 339.546265 266.407222 360.180349 C 264.240718 364.707595 262.88105 369.152664 262.88105 369.152664 C 262.313276 369.152664 261.835151 362.712917 261.39438 360.180349 C 251.540521 303.537473 271.681539 182.59425 271.681539 182.59425 C 248.597064 200.553822 234.477434 328.272973 231.294914 360.19529 C 230.839201 364.789773 230.607609 369.160135 230.607609 369.160135 C 230.473137 369.160135 230.316252 362.623269 230.174309 360.19529 C 227.133732 310.612229 227.469914 255.597967 227.469914 255.597967 C 217.76547 266.25119 210.115469 369.152664 210.070645 369.152664 L 210.324649 360.180349 C 216.637393 232.050309 193.933925 189.937952 193.933925 189.937952 C 205.042861 252.893572 184.984022 335.579321 178.364978 360.180349 C 177.124841 364.819656 176.340417 369.152664 176.340417 369.152664 C 174.88363 369.152664 173.643493 362.84739 172.552771 360.180349 C 157.14818 322.408471 176.340417 235.404655 176.340417 235.404655 C 158.627379 258.160418 152.576109 298.337863 150.603843 328.414916 C 152.232457 174.294298 139.666733 123.934284 139.666733 123.934284 C 148.706284 179.508849 129.289925 326.084057 124.553499 360.180349 C 124.269612 362.189968 124.299495 361.980788 124.553499 360.180349 L 124.165023 360.180349 C 127.676253 308.296311 110.329279 214.86769 110.329279 214.86769 C 110.329279 255.597967 100.975958 335.788501 98.02503 360.180349 C 97.472198 364.774831 97.136016 369.152664 97.136016 369.152664 C 95.634405 366.156912 94.909747 362.653152 93.908672 360.180349 C 71.563797 293.788204 97.136016 182.59425 97.136016 182.59425 C 63.077078 228.016129 59.394021 332.000854 59.035427 360.180349 C 59.013015 362.354323 58.998074 362.944509 59.035427 360.180349 C 59.035427 360.180349 60.776101 370.968045 56.009792 360.180349 C 39.648951 324.828979 59.939382 214.86769 59.939382 214.86769 C 39.835719 236.233903 31.662769 332.934692 29.854858 360.180349 C 29.55603 364.722537 29.182495 369.152664 29.182495 369.152664 C 28.689429 369.152664 28.144067 362.600857 27.733179 360.180349 C 11.768285 266.594843 59.06531 162.931358 59.06531 162.931358 C 12.14182 192.276282 0.00192631 369.137722 0.00192631 369.137722 L 0.00192631 449.821323 L 573.751974 449.821323 L 573.751974 360.180349 C 573.834152 196.011634 541.493475 170.872716 541.493475 170.872716 Z M 541.493475 170.872716 " stroke="#094d00" stroke-width="0.006" stroke-opacity="1" stroke-miterlimit="4"/></g></svg>