<?xml version="1.0" encoding="UTF-8"?>
<svg xmlns="http://www.w3.org/2000/svg" xmlns:xlink="http://www.w3.org/1999/xlink" width="4000" height="2500" viewBox="0 0 4000 2500">
<defs>
<linearGradient id="linear-pattern-0" gradientUnits="userSpaceOnUse" x1="0.000000000000000111" y1="0" x2="1" y2="0" gradientTransform="matrix(3250, -3250, 3250, 3250, 375, 2875)">
<stop offset="0" stop-color="rgb(85.498047%, 85.653687%, 85.205078%)" stop-opacity="1"/>
<stop offset="0.015625" stop-color="rgb(85.68573%, 85.713196%, 85.38208%)" stop-opacity="1"/>
<stop offset="0.03125" stop-color="rgb(86.068726%, 86.003113%, 85.806274%)" stop-opacity="1"/>
<stop offset="0.0625" stop-color="rgb(86.457825%, 86.468506%, 86.303711%)" stop-opacity="1"/>
<stop offset="0.078125" stop-color="rgb(86.846924%, 86.930847%, 86.64093%)" stop-opacity="1"/>
<stop offset="0.09375" stop-color="rgb(87.057495%, 87.185669%, 86.898804%)" stop-opacity="1"/>
<stop offset="0.109375" stop-color="rgb(87.243652%, 87.258911%, 87.084961%)" stop-opacity="1"/>
<stop offset="0.125" stop-color="rgb(87.442017%, 87.478638%, 87.330627%)" stop-opacity="1"/>
<stop offset="0.140625" stop-color="rgb(87.637329%, 87.718201%, 87.588501%)" stop-opacity="1"/>
<stop offset="0.15625" stop-color="rgb(87.998962%, 88.002014%, 87.846375%)" stop-opacity="1"/>
<stop offset="0.171875" stop-color="rgb(88.232422%, 88.40332%, 88.171387%)" stop-opacity="1"/>
<stop offset="0.1875" stop-color="rgb(88.42926%, 88.674927%, 88.439941%)" stop-opacity="1"/>
<stop offset="0.203125" stop-color="rgb(88.62915%, 88.91449%, 88.699341%)" stop-opacity="1"/>
<stop offset="0.21875" stop-color="rgb(88.825989%, 89.157104%, 88.957214%)" stop-opacity="1"/>
<stop offset="0.25" stop-color="rgb(89.170837%, 89.442444%, 89.358521%)" stop-opacity="1"/>
<stop offset="0.265625" stop-color="rgb(89.556885%, 89.743042%, 89.668274%)" stop-opacity="1"/>
<stop offset="0.28125" stop-color="rgb(89.944458%, 90.032959%, 89.802551%)" stop-opacity="1"/>
<stop offset="0.296875" stop-color="rgb(90.197754%, 90.292358%, 90.0177%)" stop-opacity="1"/>
<stop offset="0.3125" stop-color="rgb(90.394592%, 90.534973%, 90.281677%)" stop-opacity="1"/>
<stop offset="0.328125" stop-color="rgb(90.596008%, 90.782166%, 90.545654%)" stop-opacity="1"/>
<stop offset="0.34375" stop-color="rgb(90.792847%, 91.02478%, 90.811157%)" stop-opacity="1"/>
<stop offset="0.359375" stop-color="rgb(91.120911%, 91.31012%, 91.079712%)" stop-opacity="1"/>
<stop offset="0.375" stop-color="rgb(91.389465%, 91.575623%, 91.349792%)" stop-opacity="1"/>
<stop offset="0.390625" stop-color="rgb(91.58783%, 91.824341%, 91.616821%)" stop-opacity="1"/>
<stop offset="0.40625" stop-color="rgb(91.899109%, 91.992188%, 91.841125%)" stop-opacity="1"/>
<stop offset="0.421875" stop-color="rgb(92.173767%, 92.189026%, 92.079163%)" stop-opacity="1"/>
<stop offset="0.4375" stop-color="rgb(92.372131%, 92.43927%, 92.350769%)" stop-opacity="1"/>
<stop offset="0.453125" stop-color="rgb(92.575073%, 92.686462%, 92.617798%)" stop-opacity="1"/>
<stop offset="0.46875" stop-color="rgb(92.774963%, 92.938232%, 92.892456%)" stop-opacity="1"/>
<stop offset="0.484375" stop-color="rgb(92.979431%, 93.186951%, 93.161011%)" stop-opacity="1"/>
<stop offset="0.5" stop-color="rgb(93.177795%, 93.438721%, 93.435669%)" stop-opacity="1"/>
<stop offset="0.515625" stop-color="rgb(93.476868%, 93.717957%, 93.710327%)" stop-opacity="1"/>
<stop offset="0.53125" stop-color="rgb(93.870544%, 94.029236%, 93.995667%)" stop-opacity="1"/>
<stop offset="0.546875" stop-color="rgb(94.17572%, 94.311523%, 94.271851%)" stop-opacity="1"/>
<stop offset="0.5625" stop-color="rgb(94.37561%, 94.566345%, 94.551086%)" stop-opacity="1"/>
<stop offset="0.578125" stop-color="rgb(94.664001%, 94.844055%, 94.828796%)" stop-opacity="1"/>
<stop offset="0.59375" stop-color="rgb(95.059204%, 95.158386%, 95.118713%)" stop-opacity="1"/>
<stop offset="0.609375" stop-color="rgb(95.376587%, 95.446777%, 95.399475%)" stop-opacity="1"/>
<stop offset="0.625" stop-color="rgb(95.578003%, 95.704651%, 95.681763%)" stop-opacity="1"/>
<stop offset="0.640625" stop-color="rgb(95.783997%, 95.957947%, 95.957947%)" stop-opacity="1"/>
<stop offset="0.65625" stop-color="rgb(95.986938%, 96.217346%, 96.24176%)" stop-opacity="1"/>
<stop offset="0.671875" stop-color="rgb(96.188354%, 96.408081%, 96.492004%)" stop-opacity="1"/>
<stop offset="0.6875" stop-color="rgb(96.31958%, 96.517944%, 96.716309%)" stop-opacity="1"/>
<stop offset="0.703125" stop-color="rgb(96.391296%, 96.733093%, 96.931458%)" stop-opacity="1"/>
<stop offset="0.71875" stop-color="rgb(96.595764%, 96.928406%, 97.05658%)" stop-opacity="1"/>
<stop offset="0.734375" stop-color="rgb(96.788025%, 97.04895%, 97.280884%)" stop-opacity="1"/>
<stop offset="0.75" stop-color="rgb(97.045898%, 97.325134%, 97.517395%)" stop-opacity="1"/>
<stop offset="0.765625" stop-color="rgb(97.393799%, 97.573853%, 97.645569%)" stop-opacity="1"/>
<stop offset="0.78125" stop-color="rgb(97.58606%, 97.686768%, 97.866821%)" stop-opacity="1"/>
<stop offset="0.8125" stop-color="rgb(97.831726%, 97.961426%, 98.152161%)" stop-opacity="1"/>
<stop offset="0.828125" stop-color="rgb(98.191833%, 98.266602%, 98.446655%)" stop-opacity="1"/>
<stop offset="0.84375" stop-color="rgb(98.364258%, 98.518372%, 98.699951%)" stop-opacity="1"/>
<stop offset="0.859375" stop-color="rgb(98.406982%, 98.716736%, 98.815918%)" stop-opacity="1"/>
<stop offset="0.875" stop-color="rgb(98.614502%, 98.982239%, 99.107361%)" stop-opacity="1"/>
<stop offset="0.890625" stop-color="rgb(98.817444%, 99.21875%, 99.360657%)" stop-opacity="1"/>
<stop offset="0.90625" stop-color="rgb(99.034119%, 99.308777%, 99.401855%)" stop-opacity="1"/>
<stop offset="0.9375" stop-color="rgb(99.430847%, 99.635315%, 99.708557%)" stop-opacity="1"/>
<stop offset="1" stop-color="rgb(99.816895%, 99.940491%, 99.987793%)" stop-opacity="1"/>
</linearGradient>
</defs>
<path fill-rule="nonzero" fill="url(#linear-pattern-0)" d="M -1250 1250 L 2000 4500 L 5250 1250 L 2000 -2000 Z M -1250 1250 "/>
<path fill-rule="nonzero" fill="rgb(42.96875%, 81.616211%, 95.561218%)" fill-opacity="1" d="M 343.363281 3364.890625 C 335.917969 3364.890625 328.679688 3364.5 321.640625 3363.730469 C 259.773438 3356.910156 214.390625 3319.558594 186.753906 3252.71875 C 138.273438 3135.460938 144.628906 2923.078125 205.136719 2638.53125 C 261.863281 2371.761719 364.484375 2046.621094 501.90625 1698.261719 C 638.921875 1350.921875 804.40625 995.960938 980.46875 671.75 C 1167.269531 327.78125 1362.308594 26.121094 1544.53125 -200.601562 C 1931.128906 -681.648438 2039.550781 -1122.890625 1849.820312 -1443.070312 C 1684.769531 -1721.578125 1298.941406 -1867.941406 911.539062 -1799.019531 C 491.957031 -1724.351562 194.992188 -1428.339844 117.164062 -1007.199219 L 113.476562 -1007.878906 C 154.882812 -1231.929688 253.902344 -1417.320312 407.789062 -1558.910156 C 543.789062 -1684.039062 717.757812 -1768.339844 910.882812 -1802.710938 C 1095.121094 -1835.5 1288.738281 -1819.988281 1456.058594 -1759.03125 C 1631.988281 -1694.941406 1769.269531 -1586.339844 1853.039062 -1444.980469 C 1941.621094 -1295.5 1966.160156 -1119.25 1925.960938 -921.140625 C 1880.601562 -697.539062 1753.25 -454.328125 1547.449219 -198.25 C 1186.640625 250.699219 797.085938 960.191406 505.394531 1699.640625 C 368.046875 2047.808594 265.488281 2372.738281 208.808594 2639.308594 C 148.460938 2923.109375 142.03125 3134.730469 190.21875 3251.28125 C 217.292969 3316.769531 261.648438 3353.351562 322.050781 3360 C 487.742188 3378.261719 769.039062 3178.828125 1158.191406 2767.25 C 1604.109375 2295.640625 2184.339844 1551.480469 2882.769531 555.429688 C 3770.980469 -711.238281 4307.359375 -1280.480469 4522.679688 -1184.75 C 4778.578125 -1070.960938 4545.328125 -52.988281 4319.761719 931.46875 C 4121.5 1796.761719 3934.238281 2614.070312 4113.28125 2693.148438 C 4237.378906 2748 4529.238281 2440.941406 5005.519531 1754.46875 L 5008.609375 1756.609375 C 4531.148438 2444.761719 4237.839844 2752.210938 4111.761719 2696.578125 C 3929.890625 2616.25 4117.488281 1797.480469 4316.109375 930.628906 C 4427.128906 446.089844 4541.941406 -54.949219 4596.921875 -447.890625 C 4658.960938 -891.160156 4634.171875 -1131.070312 4521.148438 -1181.320312 C 4307.820312 -1276.140625 3772.871094 -707.398438 2885.839844 557.589844 C 2187.300781 1553.78125 1606.960938 2298.078125 1160.910156 2769.828125 C 787.359375 3164.910156 512.539062 3364.890625 343.363281 3364.890625 "/>
<path fill-rule="nonzero" fill="rgb(54.670715%, 82.441711%, 93.44635%)" fill-opacity="1" d="M 349.636719 3342.550781 C 341.402344 3342.550781 333.425781 3342.109375 325.664062 3341.210938 C 260 3333.660156 211.941406 3293.539062 182.820312 3221.960938 C 134.15625 3102.339844 138.722656 2890.710938 196.023438 2609.960938 C 249.792969 2346.5 348.40625 2026.988281 481.210938 1685.96875 C 613.699219 1345.738281 774.480469 998.78125 946.167969 682.601562 C 1128.328125 347.121094 1319.480469 53.328125 1498.949219 -167.03125 C 1877.101562 -631.320312 1981.199219 -1062.871094 1792.050781 -1382.179688 C 1617.339844 -1677.128906 1211.011719 -1830.710938 803.925781 -1755.679688 C 396.554688 -1680.601562 111.859375 -1394.410156 42.363281 -990.128906 L 38.667969 -990.769531 C 75.757812 -1206.539062 169.09375 -1385.140625 316.074219 -1521.621094 C 446.128906 -1642.390625 614.59375 -1724.601562 803.246094 -1759.371094 C 994.785156 -1794.679688 1198.101562 -1778.609375 1375.75 -1714.128906 C 1562.441406 -1646.378906 1707.511719 -1532.25 1795.28125 -1384.089844 C 1883.761719 -1234.71875 1909.121094 -1060.660156 1870.671875 -866.738281 C 1827.320312 -648.121094 1703.230469 -411.910156 1501.859375 -164.660156 C 1146.761719 271.328125 766.515625 963.660156 484.703125 1687.328125 C 351.980469 2028.160156 253.425781 2347.449219 199.695312 2610.710938 C 142.542969 2890.730469 137.910156 3101.609375 186.296875 3220.539062 C 214.855469 3290.75 261.890625 3330.101562 326.089844 3337.488281 C 494.441406 3356.828125 775.546875 3163.339844 1161.628906 2762.308594 C 1603.929688 2302.890625 2176.839844 1576.878906 2864.460938 604.441406 C 3739.480469 -633.011719 4271.679688 -1187.53125 4491.328125 -1090.769531 C 4753.140625 -975.480469 4534.609375 29.460938 4323.28125 1001.300781 C 4137.550781 1855.378906 3962.128906 2662.089844 4145.328125 2742.199219 C 4272 2797.578125 4561.558594 2498.550781 5030.558594 1827.949219 L 5033.640625 1830.101562 C 4563.449219 2502.378906 4272.421875 2801.878906 4143.820312 2745.640625 C 3957.800781 2664.300781 4133.550781 1856.128906 4319.609375 1000.511719 C 4423.628906 522.179688 4531.179688 27.570312 4579.949219 -360.699219 C 4634.980469 -798.710938 4605.5 -1036.398438 4489.820312 -1087.339844 C 4271.96875 -1183.238281 3741.351562 -629.148438 2867.53125 606.601562 C 2179.789062 1579.199219 1606.761719 2305.351562 1164.328125 2764.910156 C 795.105469 3148.429688 521.257812 3342.539062 349.636719 3342.550781 "/>
<path fill-rule="nonzero" fill="rgb(49.023438%, 83.547974%, 95.61615%)" fill-opacity="1" d="M 355.855469 3320.519531 C 346.765625 3320.519531 337.960938 3320.011719 329.414062 3318.980469 C 259.707031 3310.601562 208.8125 3267.480469 178.144531 3190.808594 C 81.941406 2950.289062 187.382812 2382.878906 460.199219 1673 C 732.4375 964.621094 1103.738281 288.910156 1453.429688 -134.550781 C 1823.300781 -582.449219 1923.25 -1004.359375 1734.851562 -1322.570312 C 1552.941406 -1629.808594 1115.898438 -1794.570312 695.632812 -1714.359375 C 295.078125 -1637.898438 29.527344 -1368.238281 -32.933594 -974.511719 L -36.640625 -975.101562 C -3.695312 -1182.761719 84.046875 -1354.738281 224.152344 -1486.269531 C 348.28125 -1602.800781 511.070312 -1682.941406 694.929688 -1718.039062 C 1116.691406 -1798.539062 1555.390625 -1633.03125 1738.070312 -1324.480469 C 1826.378906 -1175.328125 1852.5 -1003.488281 1815.710938 -813.738281 C 1774.28125 -600.089844 1653.359375 -370.769531 1456.320312 -132.160156 C 1106.871094 291 735.800781 966.328125 463.699219 1674.351562 C 335.515625 2007.890625 240.882812 2321.621094 190.035156 2581.609375 C 136.003906 2857.898438 133.09375 3068.070312 181.625 3189.421875 C 211.742188 3264.71875 261.617188 3307.058594 329.859375 3315.261719 C 500.890625 3335.71875 781.898438 3148.148438 1165.050781 2757.511719 C 1603.878906 2310.109375 2169.710938 1601.929688 2846.820312 652.648438 C 3708.941406 -555.980469 4236.960938 -1095.988281 4461.191406 -998.269531 C 4729.070312 -881.480469 4525.191406 110.839844 4328.011719 1070.5 C 4154.75 1913.730469 3991.109375 2710.199219 4178.589844 2791.328125 C 4307.839844 2847.261719 4595.230469 2556.082031 5057.121094 1901.121094 L 5060.191406 1903.28125 C 4597.109375 2559.929688 4308.210938 2851.539062 4177.101562 2794.769531 C 3986.820312 2712.429688 4150.769531 1914.511719 4324.339844 1069.738281 C 4421.378906 597.429688 4521.730469 109.039062 4564.289062 -274.730469 C 4612.308594 -707.660156 4578.089844 -943.210938 4459.691406 -994.828125 C 4237.351562 -1091.738281 3710.800781 -552.140625 2849.871094 654.828125 C 2172.648438 1604.269531 1606.699219 2312.601562 1167.730469 2760.140625 C 802.773438 3132.21875 529.898438 3320.511719 355.855469 3320.519531 "/>
<path fill-rule="nonzero" fill="rgb(56.344604%, 76.080322%, 83.94165%)" fill-opacity="1" d="M 362 3298.820312 C 351.960938 3298.820312 342.265625 3298.230469 332.84375 3297.050781 C 258.84375 3287.769531 204.953125 3241.398438 172.667969 3159.25 C 76.269531 2913.898438 175.78125 2353.199219 438.867188 1659.371094 C 701.589844 966.488281 1063.878906 307.578125 1407.988281 -103.21875 C 1769.75 -535.070312 1865.730469 -947.410156 1678.230469 -1264.269531 C 1488.988281 -1584.070312 1019.761719 -1760.679688 586.773438 -1675.101562 C 199.515625 -1598.558594 -54.003906 -1338.03125 -108.78125 -960.328125 L -112.492188 -960.871094 C -83.523438 -1160.621094 -1.257812 -1326.160156 132.015625 -1452.890625 C 250.269531 -1565.328125 407.265625 -1643.441406 586.042969 -1678.78125 C 791.570312 -1719.410156 1014.738281 -1702.019531 1214.460938 -1629.828125 C 1421.03125 -1555.171875 1586.878906 -1426.019531 1681.460938 -1266.179688 C 1769.511719 -1117.359375 1796.308594 -947.800781 1761.089844 -762.210938 C 1721.480469 -553.46875 1603.648438 -330.941406 1410.859375 -100.808594 C 1067.011719 309.679688 704.953125 968.191406 442.375 1660.691406 C 179.609375 2353.679688 80.09375 2913.378906 176.15625 3157.871094 C 207.902344 3238.660156 260.773438 3284.230469 333.308594 3293.328125 C 507.089844 3315.171875 788.035156 3133.28125 1168.410156 2752.890625 C 1603.941406 2317.320312 2162.921875 1626.660156 2829.820312 700.070312 C 3679.320312 -480.191406 4203.421875 -1005.941406 4432.21875 -907.25 C 4706.351562 -788.980469 4517.050781 191.199219 4333.988281 1139.109375 C 4173.160156 1971.871094 4021.25 2758.441406 4213.101562 2840.578125 C 4344.980469 2897.070312 4630.269531 2613.621094 5085.191406 1974.039062 L 5088.25 1976.21875 C 4632.148438 2617.441406 4345.410156 2901.308594 4211.628906 2844.03125 C 4016.988281 2760.699219 4169.179688 1972.679688 4330.300781 1138.398438 C 4420.398438 671.878906 4513.570312 189.46875 4549.921875 -189.960938 C 4590.929688 -618.011719 4551.949219 -851.511719 4430.730469 -903.808594 C 4203.851562 -1001.691406 3681.160156 -476.339844 2832.871094 702.261719 C 2165.839844 1629.011719 1606.730469 2319.828125 1171.058594 2755.539062 C 810.347656 3116.269531 538.429688 3298.789062 362 3298.820312 "/>
<path fill-rule="nonzero" fill="rgb(71.269226%, 77.134705%, 91.383362%)" fill-opacity="1" d="M 368.074219 3277.441406 C 357.007812 3277.441406 346.296875 3276.761719 335.9375 3275.398438 C 257.363281 3265.121094 200.304688 3215.25 166.339844 3127.171875 C 69.859375 2876.96875 163.632812 2322.898438 417.171875 1645.039062 C 670.566406 967.550781 1023.988281 325.320312 1362.578125 -72.941406 C 1716.421875 -489.121094 1808.609375 -891.949219 1622.179688 -1207.238281 C 1425.5 -1539.851562 922.675781 -1729.03125 477.453125 -1637.929688 C 103.816406 -1561.46875 -137.710938 -1309.851562 -185.195312 -947.601562 L -188.914062 -948.089844 C -141.210938 -1312.03125 101.398438 -1564.800781 476.703125 -1641.601562 C 688.816406 -1685.011719 922.082031 -1666.828125 1133.519531 -1590.410156 C 1352.03125 -1511.449219 1526.710938 -1376.050781 1625.410156 -1209.148438 C 1713.140625 -1060.78125 1740.519531 -893.539062 1706.789062 -712.058594 C 1668.910156 -508.21875 1554.058594 -292.371094 1365.441406 -70.511719 C 1027.121094 327.429688 673.9375 969.25 420.683594 1646.351562 C 167.453125 2323.378906 73.679688 2876.449219 169.839844 3125.820312 C 203.269531 3212.519531 259.316406 3261.589844 336.425781 3271.691406 C 512.941406 3294.738281 793.949219 3118.738281 1171.671875 2748.441406 C 1604.058594 2324.539062 2156.429688 1651.070312 2813.421875 746.75 C 3650.601562 -405.570312 4171.03125 -917.28125 4404.421875 -817.660156 C 4684.988281 -697.910156 4510.230469 270.570312 4341.21875 1207.148438 C 4192.769531 2029.789062 4052.550781 2806.808594 4248.921875 2889.949219 C 4383.460938 2946.949219 4666.75 2671.121094 5114.871094 2046.710938 L 5117.910156 2048.898438 C 4668.628906 2674.929688 4383.851562 2951.148438 4247.460938 2893.410156 C 4048.328125 2809.101562 4188.800781 2030.648438 4337.53125 1206.480469 C 4420.710938 745.550781 4506.71875 268.929688 4536.851562 -106.339844 C 4570.851562 -529.691406 4527.050781 -761.238281 4402.949219 -814.210938 C 4171.410156 -913.011719 3652.449219 -401.730469 2816.460938 748.949219 C 2159.339844 1653.441406 1606.828125 2327.070312 1174.289062 2751.121094 C 817.777344 3100.628906 546.855469 3277.429688 368.074219 3277.441406 "/>
<path fill-rule="nonzero" fill="rgb(45.307922%, 56.517029%, 82.142639%)" fill-opacity="1" d="M 374.152344 3256.378906 C 361.941406 3256.378906 350.140625 3255.601562 338.742188 3254.039062 C 255.296875 3242.648438 194.878906 3188.96875 159.164062 3094.5 C 62.738281 2839.429688 150.949219 2291.949219 395.136719 1629.980469 C 639.394531 967.808594 984.089844 342.140625 1317.199219 -43.699219 C 1663.269531 -444.558594 1751.851562 -837.960938 1566.628906 -1151.449219 C 1358.941406 -1502.949219 832.335938 -1701.210938 367.734375 -1602.820312 C 7.941406 -1526.621094 -221.675781 -1283.691406 -262.238281 -936.320312 L -265.964844 -936.75 C -244.40625 -1121.339844 -172.699219 -1274.558594 -52.824219 -1392.140625 C 53.882812 -1496.808594 199.042969 -1570.929688 366.960938 -1606.488281 C 585.324219 -1652.75 828.75 -1633.660156 1052.371094 -1552.761719 C 1283.238281 -1469.238281 1467.03125 -1327.398438 1569.859375 -1153.359375 C 1657.191406 -1005.539062 1685.089844 -840.660156 1652.78125 -663.269531 C 1616.53125 -464.289062 1504.578125 -255.011719 1320.039062 -41.25 C 987.210938 344.261719 642.765625 969.511719 398.652344 1631.28125 C 154.773438 2292.421875 66.554688 2838.921875 162.671875 3093.171875 C 197.863281 3186.261719 257.273438 3239.128906 339.25 3250.328125 C 518.550781 3274.808594 799.691406 3104.511719 1174.890625 2744.171875 C 1604.300781 2331.761719 2150.28125 1675.179688 2797.679688 792.671875 C 3622.78125 -332.089844 4139.609375 -829.96875 4377.738281 -729.488281 C 4506.46875 -675.148438 4555.878906 -444.269531 4528.78125 -23.640625 C 4504.851562 347.800781 4425.960938 818.960938 4349.671875 1274.601562 C 4213.558594 2087.511719 4085 2855.339844 4286 2939.46875 C 4423.269531 2996.921875 4704.609375 2728.621094 5146.058594 2119.171875 L 5149.101562 2121.359375 C 4706.488281 2732.421875 4423.699219 3001.179688 4284.550781 2942.929688 C 4080.808594 2857.648438 4209.609375 2088.398438 4345.96875 1273.988281 C 4422.25 818.429688 4501.121094 347.371094 4525.039062 -23.878906 C 4552.019531 -442.71875 4503.359375 -672.390625 4376.28125 -726.03125 C 4140.03125 -825.761719 3624.628906 -328.269531 2800.699219 794.890625 C 2153.179688 1677.570312 1607.058594 2334.320312 1177.488281 2746.871094 C 825.171875 3085.238281 555.242188 3256.371094 374.152344 3256.378906 "/>
<path fill-rule="nonzero" fill="rgb(51.954651%, 59.022522%, 83.187866%)" fill-opacity="1" d="M 380.203125 3235.640625 C 366.738281 3235.640625 353.738281 3234.738281 341.195312 3232.960938 C 252.578125 3220.328125 188.617188 3162.53125 151.089844 3061.179688 C 54.851562 2801.25 137.714844 2260.308594 372.75 1614.179688 C 608.078125 967.238281 944.199219 357.980469 1271.871094 -15.578125 C 1610.320312 -401.441406 1695.46875 -785.460938 1511.628906 -1096.878906 C 1296.128906 -1461.949219 733.640625 -1674.089844 257.773438 -1569.808594 C 54.546875 -1525.269531 -293.335938 -1382.460938 -339.894531 -926.449219 L -343.625 -926.828125 C -325.515625 -1104.191406 -258.863281 -1251.53125 -145.515625 -1364.761719 C -44.425781 -1465.75 94.75 -1537.921875 256.96875 -1573.46875 C 477.984375 -1621.910156 738.273438 -1601.28125 971.089844 -1516.851562 C 1214.761719 -1428.5 1407.871094 -1280.03125 1514.859375 -1098.789062 C 1601.710938 -951.648438 1630.039062 -789.179688 1599.058594 -615.878906 C 1564.351562 -421.730469 1455.21875 -218.929688 1274.691406 -13.109375 C 947.308594 360.121094 611.453125 968.941406 376.277344 1615.460938 C 141.535156 2260.789062 58.667969 2800.75 154.609375 3059.878906 C 191.621094 3159.839844 254.574219 3216.820312 341.726562 3229.238281 C 523.800781 3255.191406 805.175781 3090.609375 1178.011719 2740.078125 C 1604.601562 2339 2144.441406 1699 2782.53125 837.871094 C 3595.859375 -259.730469 4109.320312 -744 4352.179688 -642.660156 C 4483.960938 -587.671875 4538.28125 -358.589844 4518.25 57.691406 C 4500.550781 425.28125 4428.789062 891.101562 4359.378906 1341.570312 C 4235.578125 2145.109375 4118.648438 2904.089844 4324.410156 2989.191406 C 4464.449219 3047.070312 4743.929688 2786.171875 5178.851562 2191.46875 L 5181.878906 2193.691406 C 4745.789062 2789.988281 4464.800781 3051.300781 4322.980469 2992.648438 C 4114.488281 2906.429688 4231.648438 2146.039062 4355.679688 1341 C 4425.070312 890.621094 4496.820312 424.910156 4514.5 57.511719 C 4534.449219 -357 4480.878906 -584.890625 4350.738281 -639.199219 C 4109.640625 -739.800781 3597.691406 -255.898438 2785.550781 840.101562 C 2147.320312 1701.410156 1607.339844 2341.570312 1180.578125 2742.800781 C 832.441406 3070.121094 563.535156 3235.628906 380.203125 3235.640625 "/>
<path fill-rule="nonzero" fill="rgb(40.77301%, 52.282715%, 79.933167%)" fill-opacity="1" d="M 386.273438 3215.21875 C 371.425781 3215.21875 357.113281 3214.191406 343.328125 3212.148438 C 249.195312 3198.148438 181.488281 3135.898438 142.089844 3027.109375 C 46.183594 2762.339844 123.90625 2227.941406 349.988281 1597.589844 C 576.582031 965.828125 904.257812 372.890625 1226.519531 11.46875 C 1650.761719 -464.308594 1586.089844 -824.859375 1457.140625 -1043.550781 C 1233.789062 -1422.339844 634.132812 -1649.191406 147.683594 -1538.890625 C -189.023438 -1462.550781 -390 -1242.039062 -418.222656 -917.980469 L -421.957031 -918.300781 C -407.121094 -1088.679688 -345.351562 -1230.351562 -238.367188 -1339.398438 C -141.40625 -1438.21875 -11.800781 -1506.570312 146.855469 -1542.539062 C 373.273438 -1593.871094 644.027344 -1572.039062 889.710938 -1482.648438 C 1146.578125 -1389.191406 1349.238281 -1233.921875 1460.371094 -1045.449219 C 1546.671875 -899.109375 1575.339844 -739.109375 1545.609375 -569.871094 C 1512.339844 -380.53125 1405.921875 -184.089844 1229.320312 13.960938 C 907.359375 375.039062 579.957031 967.53125 353.519531 1598.859375 C 127.722656 2228.410156 50 2761.851562 145.613281 3025.828125 C 184.511719 3133.21875 251.21875 3194.660156 343.878906 3208.429688 C 528.78125 3235.890625 810.453125 3077.03125 1181.058594 2736.171875 C 1604.988281 2346.261719 2138.921875 1722.550781 2768 882.371094 C 3569.78125 -188.460938 4079.980469 -659.320312 4327.699219 -557.191406 C 4462.621094 -501.570312 4521.910156 -274.199219 4508.960938 137.898438 C 4497.519531 501.808594 4432.871094 962.5 4370.339844 1408.011719 C 4258.828125 2202.539062 4153.511719 2953 4364.160156 3039.039062 C 4506.929688 3097.351562 4784.691406 2843.730469 5213.21875 2263.550781 L 5216.238281 2265.78125 C 4786.558594 2847.519531 4507.390625 3101.550781 4362.738281 3042.519531 C 4149.390625 2955.359375 4254.910156 2203.5 4366.628906 1407.488281 C 4429.140625 962.078125 4493.78125 501.488281 4505.210938 137.78125 C 4518.101562 -272.570312 4459.570312 -498.769531 4326.269531 -553.730469 C 4080.351562 -655.128906 3571.601562 -184.628906 2771 884.609375 C 2141.78125 1724.980469 1607.699219 2348.871094 1183.601562 2738.929688 C 839.644531 3055.289062 571.785156 3215.210938 386.273438 3215.21875 "/>
<path fill-rule="nonzero" fill="rgb(47.462463%, 58.590698%, 83.190918%)" fill-opacity="1" d="M 392.375 3195.101562 C 376.003906 3195.101562 360.265625 3193.921875 345.101562 3191.570312 C 245.101562 3176.058594 173.4375 3108.96875 132.097656 2992.171875 C 36.695312 2722.578125 109.484375 2194.75 326.816406 1580.191406 C 544.875 963.589844 864.234375 386.878906 1181.101562 37.5 C 1596 -419.949219 1530.820312 -774.53125 1403.078125 -991.441406 C 1171.828125 -1384.109375 533.671875 -1626.46875 37.449219 -1510.109375 C -285.070312 -1434.480469 -474.957031 -1221.699219 -497.230469 -910.980469 L -500.972656 -911.25 C -478.570312 -1223.75 -287.660156 -1437.730469 36.59375 -1513.761719 C 267.964844 -1568.011719 549.175781 -1544.828125 808.152344 -1450.160156 C 1078.628906 -1351.28125 1291.050781 -1189.050781 1406.308594 -993.339844 C 1491.96875 -847.898438 1520.910156 -690.398438 1492.339844 -525.199219 C 1460.421875 -340.621094 1356.640625 -150.460938 1183.878906 40.019531 C 867.324219 389.058594 548.25 965.289062 330.351562 1581.441406 C 113.300781 2195.210938 40.507812 2722.121094 135.632812 2990.921875 C 176.476562 3106.320312 247.144531 3172.578125 345.675781 3187.859375 C 533.4375 3217.019531 815.496094 3063.761719 1184.011719 2732.449219 C 1605.460938 2353.550781 2133.710938 1745.828125 2754.078125 926.160156 C 3544.570312 -118.238281 4051.628906 -575.960938 4304.308594 -473.039062 C 4442.449219 -416.78125 4506.769531 -191.039062 4500.929688 217.058594 C 4495.769531 577.449219 4438.21875 1033.21875 4382.558594 1473.980469 C 4283.320312 2259.859375 4189.589844 3002.160156 4405.28125 3089.148438 C 4550.890625 3147.859375 4826.949219 2901.390625 5249.210938 2335.550781 L 5252.21875 2337.789062 C 4828.808594 2905.171875 4551.328125 3152.109375 4403.878906 3092.621094 C 4185.5 3004.550781 4279.421875 2260.871094 4378.839844 1473.511719 C 4434.480469 1032.851562 4492.019531 577.191406 4497.179688 217.011719 C 4503 -189.378906 4439.449219 -413.960938 4302.890625 -469.570312 C 4052.089844 -571.738281 3546.398438 -114.449219 2757.070312 928.429688 C 2136.550781 1748.28125 1608.140625 2356.179688 1186.519531 2735.238281 C 846.773438 3040.691406 579.996094 3195.078125 392.375 3195.101562 "/>
<path fill-rule="nonzero" fill="rgb(67.263794%, 68.90564%, 84.777832%)" fill-opacity="1" d="M 398.554688 3175.289062 C 380.515625 3175.289062 363.195312 3173.941406 346.535156 3171.238281 C 240.28125 3154.050781 164.441406 3081.71875 121.109375 2956.25 C 26.378906 2681.929688 94.480469 2160.691406 303.273438 1561.929688 C 513.011719 960.480469 824.199219 399.929688 1135.691406 62.46875 C 1541.429688 -377.070312 1475.921875 -725.550781 1349.511719 -940.488281 C 1230.609375 -1142.671875 1008.910156 -1311.460938 725.234375 -1415.761719 C 453.242188 -1515.769531 162.386719 -1540.429688 -72.773438 -1483.421875 C -381.242188 -1408.621094 -560.300781 -1203.351562 -576.96875 -905.398438 L -580.710938 -905.609375 C -563.945312 -1205.351562 -383.867188 -1411.839844 -73.65625 -1487.058594 C 162.199219 -1544.25 453.855469 -1519.550781 726.53125 -1419.289062 C 1011.011719 -1314.679688 1233.410156 -1145.320312 1352.75 -942.390625 C 1437.671875 -797.980469 1466.800781 -643.039062 1439.320312 -481.871094 C 1408.660156 -302.050781 1307.429688 -118.050781 1138.449219 65.011719 C 827.285156 402.121094 516.394531 962.179688 306.816406 1563.160156 C 98.285156 2161.148438 30.1875 2681.46875 124.65625 2955.03125 C 167.5 3079.089844 242.351562 3150.589844 347.136719 3167.539062 C 537.753906 3198.421875 820.308594 3050.820312 1186.871094 2728.929688 C 1605.988281 2360.898438 2128.800781 1768.871094 2740.769531 969.308594 C 3520.238281 -49.078125 4024.398438 -493.738281 4281.960938 -390.160156 C 4423.441406 -333.269531 4492.839844 -109.078125 4494.140625 295.21875 C 4495.289062 652.25 4444.828125 1103.308594 4396.039062 1539.53125 C 4309.070312 2317.109375 4226.921875 3051.578125 4447.789062 3139.480469 C 4596.238281 3198.589844 4870.691406 2959.121094 5286.808594 2407.417969 L 5289.808594 2409.667969 C 4872.53125 2962.910156 4596.640625 3202.769531 4446.398438 3142.96875 C 4222.871094 3054 4305.179688 2318.160156 4392.320312 1539.109375 C 4441.089844 1103 4491.53125 652.039062 4490.390625 295.230469 C 4489.101562 -107.371094 4420.46875 -330.429688 4280.570312 -386.679688 C 4024.75 -489.539062 3522.039062 -45.269531 2743.75 971.589844 C 2131.628906 1771.351562 1608.648438 2363.550781 1189.351562 2731.75 C 853.816406 3026.378906 588.203125 3175.269531 398.554688 3175.289062 "/>
<path fill-rule="nonzero" fill="rgb(45.898438%, 82.35321%, 91.474915%)" fill-opacity="1" d="M 4541.171875 3202.800781 C 4522.941406 3202.800781 4506.011719 3199.71875 4490.339844 3193.570312 C 4261.519531 3103.730469 4332.21875 2375.378906 4407.070312 1604.269531 C 4448.980469 1172.5 4492.320312 726.03125 4484.851562 372.421875 C 4476.410156 -26.578125 4402.628906 -248.191406 4259.28125 -305.078125 C 3998.410156 -408.601562 3498.53125 22.859375 2731.050781 1014.039062 C 2127.019531 1794.140625 1609.230469 2370.941406 1192.070312 2728.429688 C 826.433594 3041.769531 542.285156 3183.980469 347.601562 3151.140625 C 234.691406 3132.089844 154.4375 3054.070312 109.070312 2919.238281 C 15.203125 2640.269531 78.855469 2125.710938 279.34375 1542.789062 C 480.984375 956.511719 784.125 412.078125 1090.25 86.429688 C 1487.011719 -335.640625 1421.351562 -677.921875 1296.398438 -890.730469 C 1175.25 -1097.070312 937.292969 -1277.78125 643.550781 -1386.53125 C 357.476562 -1492.449219 56.230469 -1518.820312 -182.933594 -1458.878906 C -477.566406 -1385.050781 -646.101562 -1187.011719 -657.492188 -901.230469 L -661.242188 -901.378906 C -655.226562 -1052.289062 -607.074219 -1178.179688 -518.125 -1275.558594 C -437.023438 -1364.359375 -324.554688 -1427.261719 -183.847656 -1462.519531 C 56.035156 -1522.628906 358.082031 -1496.21875 644.851562 -1390.050781 C 939.390625 -1281 1178.050781 -1099.699219 1299.628906 -892.628906 C 1383.75 -749.359375 1412.980469 -597.03125 1386.511719 -439.859375 C 1357.019531 -264.761719 1258.261719 -86.820312 1092.980469 89 C 787.199219 414.28125 484.363281 958.210938 282.890625 1544.011719 C 82.660156 2126.171875 19.015625 2639.828125 112.625 2918.039062 C 157.515625 3051.460938 236.78125 3128.640625 348.222656 3147.441406 C 541.804688 3180.109375 824.878906 3038.160156 1189.640625 2725.578125 C 1606.601562 2368.261719 2124.199219 1791.640625 2728.078125 1011.75 C 3496.710938 19.070312 3998 -412.808594 4260.671875 -308.570312 C 4405.570312 -251.058594 4480.121094 -28.328125 4488.589844 372.339844 C 4496.070312 726.171875 4452.71875 1172.761719 4410.800781 1604.628906 C 4336.089844 2374.289062 4265.519531 3101.269531 4491.71875 3190.078125 C 4643.011719 3249.550781 4915.949219 3016.96875 5326.050781 2479.230469 L 5329.03125 2481.511719 C 4959.871094 2965.570312 4701.019531 3202.800781 4541.171875 3202.800781 "/>
<path fill-rule="nonzero" fill="rgb(68.09845%, 69.006348%, 87.507629%)" fill-opacity="1" d="M 4588.828125 3254.011719 C 4569.820312 3254.011719 4552.140625 3250.828125 4535.730469 3244.480469 C 4301.441406 3153.769531 4360.519531 2432.570312 4423.078125 1669.019531 C 4458.109375 1241.390625 4494.328125 799.199219 4480.488281 448.640625 C 4464.878906 53.070312 4385.871094 -167.179688 4238.96875 -224.699219 C 3973 -328.859375 3475.789062 90.050781 2718.890625 1055.910156 C 2122.660156 1816.75 1609.839844 2378.429688 1194.660156 2725.339844 C 867.664062 2998.578125 604.578125 3136.570312 411.1875 3136.578125 C 389.3125 3136.578125 368.351562 3134.820312 348.265625 3131.289062 C 228.261719 3110.171875 143.359375 3025.980469 95.917969 2881.050781 C 3.113281 2597.558594 62.566406 2089.78125 254.960938 1522.75 C 448.726562 951.679688 743.949219 423.320312 1044.679688 109.378906 C 1432.671875 -295.648438 1367.03125 -631.628906 1243.648438 -842.148438 C 1118.601562 -1055.519531 870.0625 -1243.859375 561.757812 -1358.898438 C 261.203125 -1471.039062 -50.34375 -1499.320312 -293.019531 -1436.488281 C -574.0625 -1363.71875 -732.371094 -1172.660156 -738.78125 -898.519531 L -742.53125 -898.601562 C -739.140625 -1043.539062 -695.164062 -1164.578125 -611.824219 -1258.378906 C -535.671875 -1344.078125 -428.726562 -1405.230469 -293.960938 -1440.121094 C -50.558594 -1503.148438 261.8125 -1474.820312 563.066406 -1362.421875 C 872.164062 -1247.078125 1121.410156 -1058.148438 1246.878906 -844.050781 C 1330.109375 -702.039062 1359.359375 -552.359375 1333.828125 -399.179688 C 1305.421875 -228.761719 1209.050781 -56.78125 1047.390625 111.96875 C 414.605469 772.550781 -99.214844 2272.910156 99.480469 2879.878906 C 146.460938 3023.398438 230.382812 3106.738281 348.914062 3127.601562 C 545.4375 3162.179688 829.160156 3025.871094 1192.261719 2722.460938 C 1607.230469 2375.71875 2119.871094 1814.230469 2715.941406 1053.601562 C 3474 86.261719 3972.648438 -333.03125 4240.339844 -228.191406 C 4388.78125 -170.070312 4468.558594 51.28125 4484.238281 448.5 C 4498.089844 799.28125 4461.851562 1241.589844 4426.808594 1669.328125 C 4364.378906 2431.441406 4305.410156 3151.28125 4537.089844 3240.980469 C 4691.25 3300.640625 4962.738281 3075.011719 5366.960938 2551.039062 L 5369.921875 2553.320312 C 5007.191406 3023.53125 4750.539062 3254.011719 4588.828125 3254.011719 "/>
<path fill-rule="nonzero" fill="rgb(42.012024%, 80.914307%, 91.000366%)" fill-opacity="1" d="M 4638 3305.5 C 4618.199219 3305.5 4599.738281 3302.210938 4582.578125 3295.671875 C 4342.679688 3204.121094 4390.128906 2489.738281 4440.359375 1733.429688 C 4468.5 1309.730469 4497.601562 871.601562 4477.351562 523.929688 C 4454.5 131.589844 4370.199219 -87.390625 4219.640625 -145.53125 C 3948.558594 -250.179688 3453.871094 156.25 2707.328125 1097.128906 C 2118.589844 1839.121094 1610.480469 2385.949219 1197.121094 2722.429688 C 874.476562 2985.058594 612.796875 3117.660156 417.710938 3117.671875 C 393.632812 3117.671875 370.585938 3115.660156 348.550781 3111.609375 C 220.988281 3088.210938 131.191406 2997.328125 81.640625 2841.5 C -9.882812 2553.640625 45.648438 2052.800781 230.1875 1501.730469 C 318.820312 1237.050781 433.242188 974.71875 561.074219 743.109375 C 698.6875 493.78125 846.046875 287.929688 999.0625 131.28125 C 1378.449219 -257.109375 1313.019531 -586.660156 1191.320312 -794.730469 C 1062.480469 -1015.019531 803.183594 -1211.148438 479.941406 -1332.808594 C 169.167969 -1449.769531 -160.894531 -1480.949219 -402.972656 -1416.199219 C -592.402344 -1365.539062 -818.679688 -1234.371094 -820.890625 -897.191406 L -824.640625 -897.210938 C -823.726562 -1036.429688 -783.738281 -1152.828125 -705.78125 -1243.179688 C -634.394531 -1325.921875 -532.839844 -1385.351562 -403.9375 -1419.820312 C -161.128906 -1484.769531 169.785156 -1453.539062 481.265625 -1336.308594 C 805.300781 -1214.359375 1065.289062 -1017.648438 1194.558594 -796.621094 C 1316.910156 -587.429688 1382.78125 -256.179688 1001.738281 133.898438 C 706.800781 435.851562 419.695312 947.640625 233.742188 1502.929688 C 49.449219 2053.261719 -6.074219 2553.238281 85.214844 2840.359375 C 134.3125 2994.769531 223.136719 3084.789062 349.226562 3107.921875 C 548.691406 3144.550781 833.183594 3013.839844 1194.761719 2719.519531 C 1607.910156 2383.210938 2115.820312 1836.578125 2704.390625 1094.800781 C 3452.078125 152.480469 3948.160156 -254.398438 4220.980469 -149.03125 C 4373.070312 -90.300781 4458.148438 129.75 4481.101562 523.710938 C 4501.359375 871.621094 4472.25 1309.859375 4444.101562 1733.671875 C 4393.96875 2488.570312 4346.609375 3201.601562 4583.910156 3292.160156 C 4741.078125 3352.128906 5011.070312 3133.148438 5409.480469 2622.78125 L 5412.441406 2625.078125 C 5056.039062 3081.640625 4801.550781 3305.5 4638 3305.5 "/>
<path fill-rule="nonzero" fill="rgb(63.691711%, 65.550232%, 83.274841%)" fill-opacity="1" d="M 4688.761719 3357.328125 C 4668.128906 3357.328125 4648.859375 3353.949219 4630.929688 3347.199219 C 4385.269531 3254.839844 4421.058594 2546.949219 4458.949219 1797.5 C 4480.179688 1377.53125 4502.140625 943.261719 4475.429688 598.308594 C 4445.300781 209.039062 4355.621094 -8.761719 4201.28125 -67.519531 C 3925.011719 -172.679688 3432.738281 221.558594 2696.351562 1137.761719 C 2114.800781 1861.320312 1611.160156 2393.578125 1199.441406 2719.738281 C 838.335938 3005.800781 552.007812 3131.101562 348.394531 3092.148438 C 212.78125 3066.210938 117.820312 2968.078125 66.152344 2800.46875 C -23.863281 2508.46875 28.015625 2014.75 204.921875 1479.769531 C 290.167969 1221.980469 400.878906 967.269531 525.089844 743.179688 C 658.804688 501.949219 802.851562 303.121094 953.242188 152.238281 C 1324.238281 -219.960938 1259.199219 -543.011719 1139.308594 -748.480469 C 1006.78125 -975.589844 736.617188 -1179.621094 398.085938 -1308.261719 C 72.320312 -1432.039062 -268.179688 -1465.621094 -512.746094 -1398.089844 C -693.078125 -1348.300781 -907.320312 -1220.988281 -903.890625 -897.28125 L -907.640625 -897.238281 C -909.058594 -1031.011719 -872.859375 -1142.988281 -800.050781 -1230.050781 C -733.234375 -1309.941406 -636.90625 -1367.699219 -513.746094 -1401.710938 C -268.4375 -1469.441406 72.929688 -1435.808594 399.417969 -1311.761719 C 738.738281 -1182.828125 1009.601562 -978.210938 1142.550781 -750.371094 C 1263.101562 -543.769531 1328.578125 -219 955.898438 154.878906 C 666.421875 445.320312 387.015625 941.039062 208.480469 1480.941406 C 31.808594 2015.21875 -20.058594 2508.082031 69.734375 2799.371094 C 120.964844 2965.539062 214.953125 3062.808594 349.101562 3088.46875 C 551.574219 3127.210938 836.898438 3002.148438 1197.109375 2716.800781 C 1608.621094 2390.808594 2112.050781 1858.75 2693.429688 1135.410156 C 3430.980469 217.769531 3924.648438 -176.839844 4202.609375 -71.019531 C 4358.449219 -11.691406 4448.910156 207.148438 4479.171875 598.019531 C 4505.890625 943.199219 4483.929688 1377.601562 4462.691406 1797.691406 C 4424.878906 2545.730469 4389.148438 3252.289062 4632.25 3343.691406 C 4792.25 3403.878906 5060.96875 3191.53125 5453.71875 2694.558594 L 5456.660156 2696.890625 C 5106.449219 3140.03125 4854.089844 3357.328125 4688.761719 3357.328125 "/>
<path fill-rule="nonzero" fill="rgb(76.593018%, 83.044434%, 93.902588%)" fill-opacity="1" d="M 4741.140625 3409.53125 C 4719.679688 3409.53125 4699.589844 3406.050781 4680.851562 3399.109375 C 4429.25 3305.929688 4453.328125 2604.179688 4478.828125 1861.230469 C 4493.128906 1444.769531 4507.910156 1014.140625 4474.699219 671.761719 C 4437.21875 285.359375 4342.078125 68.671875 4183.839844 9.308594 C 3902.351562 -96.28125 3412.398438 285.921875 2685.980469 1177.761719 C 2111.28125 1883.300781 1611.871094 2401.261719 1201.589844 2717.238281 C 887.878906 2958.859375 629.328125 3080.769531 431.28125 3080.789062 C 402.132812 3080.789062 374.320312 3078.148438 347.808594 3072.859375 C 203.613281 3044.109375 103.230469 2938.101562 49.445312 2757.800781 C -38.8125 2461.910156 9.714844 1975.539062 179.257812 1456.75 C 261.238281 1205.910156 368.339844 958.851562 489 742.28125 C 618.886719 509.148438 759.65625 317.339844 907.40625 172.171875 C 1270.140625 -184.230469 1205.648438 -500.660156 1087.679688 -703.359375 C 951.59375 -937.171875 670.398438 -1149.238281 316.195312 -1285.191406 C -24.941406 -1416.128906 -375.816406 -1452.351562 -622.398438 -1382.089844 C -793.894531 -1333.21875 -996.492188 -1209.699219 -987.746094 -898.820312 L -991.496094 -898.710938 C -998.472656 -1146.691406 -871.195312 -1315.089844 -623.425781 -1385.699219 C -376.101562 -1456.179688 -24.335938 -1419.921875 317.542969 -1288.691406 C 672.527344 -1152.441406 954.414062 -939.78125 1090.921875 -705.238281 C 1209.558594 -501.398438 1274.488281 -183.25 910.03125 174.839844 C 621.816406 458.03125 356.757812 925.691406 182.824219 1457.921875 C 13.507812 1976 -35.007812 2461.539062 53.039062 2756.730469 C 106.394531 2935.601562 205.8125 3040.71875 348.542969 3069.191406 C 554.085938 3110.140625 840.316406 2990.761719 1199.308594 2714.269531 C 1609.351562 2398.460938 2108.558594 1880.710938 2683.070312 1175.390625 C 3410.648438 282.140625 3901.980469 -100.441406 4185.160156 5.800781 C 4344.871094 65.71875 4440.800781 283.429688 4478.429688 671.398438 C 4511.671875 1014.019531 4496.890625 1444.78125 4482.578125 1861.351562 C 4457.128906 2602.921875 4433.078125 3303.359375 4682.160156 3395.589844 C 4845.058594 3455.929688 5112.511719 3250.128906 5499.699219 2766.390625 L 5502.628906 2768.738281 C 5158.511719 3198.660156 4908.238281 3409.53125 4741.140625 3409.53125 "/>
<path fill-rule="nonzero" fill="rgb(55.226135%, 78.527832%, 89.674377%)" fill-opacity="1" d="M 4795.140625 3462.078125 C 4772.808594 3462.078125 4751.890625 3458.5 4732.308594 3451.371094 C 4474.601562 3357.410156 4486.949219 2661.480469 4500.03125 1924.671875 C 4507.359375 1511.53125 4514.941406 1084.320312 4475.171875 744.359375 C 4430.28125 360.660156 4329.578125 144.988281 4167.328125 85.019531 C 3880.628906 -20.96875 3392.839844 349.390625 2676.148438 1217.199219 C 2108.019531 1905.128906 1612.578125 2409.050781 1203.578125 2714.96875 C 894.46875 2946.171875 637.691406 3062.789062 438.410156 3062.800781 C 406.359375 3062.800781 375.8125 3059.78125 346.757812 3053.738281 C 193.410156 3021.871094 87.332031 2907.339844 31.457031 2713.339844 C -54.792969 2413.871094 -9.316406 1935.121094 153.105469 1432.691406 C 320.210938 915.761719 578.355469 463.21875 861.347656 191.121094 C 1216.019531 -149.890625 1152.269531 -459.621094 1036.328125 -659.390625 C 896.84375 -899.738281 604.507812 -1119.96875 234.273438 -1263.621094 C -122.605469 -1402.078125 -483.78125 -1441.210938 -731.90625 -1368.269531 C -965.632812 -1299.558594 -1083.421875 -1138.261719 -1072.539062 -901.808594 L -1076.289062 -901.628906 C -1087.261719 -1140.019531 -968.535156 -1302.621094 -732.964844 -1371.871094 C -484.082031 -1445.03125 -121.988281 -1405.878906 235.628906 -1267.121094 C 606.640625 -1123.171875 899.667969 -902.339844 1039.570312 -661.269531 C 1156.179688 -460.339844 1220.371094 -148.878906 863.945312 193.820312 C 581.386719 465.511719 323.59375 917.480469 156.675781 1433.839844 C -5.527344 1935.601562 -50.992188 2413.53125 35.058594 2712.300781 C 90.519531 2904.859375 195.644531 3018.5 347.519531 3050.078125 C 556.15625 3093.449219 843.410156 2979.679688 1201.328125 2711.960938 C 1610.089844 2406.21875 2105.320312 1902.511719 2673.261719 1214.808594 C 3391.109375 345.609375 3880.261719 -25.070312 4168.628906 81.5 C 4332.328125 142.011719 4433.820312 358.679688 4478.890625 743.921875 C 4518.699219 1084.140625 4511.109375 1511.480469 4503.78125 1924.738281 C 4490.71875 2660.171875 4478.398438 3354.808594 4733.601562 3447.839844 C 4899.46875 3508.320312 5165.648438 3308.929688 5547.390625 2838.269531 L 5550.300781 2840.628906 C 5212.171875 3257.539062 4963.941406 3462.078125 4795.140625 3462.078125 "/>
<path fill-rule="nonzero" fill="rgb(44.636536%, 56.048584%, 81.912231%)" fill-opacity="1" d="M 4850.78125 3515.058594 C 4827.578125 3515.058594 4805.789062 3511.378906 4785.359375 3504.058594 C 4521.371094 3409.339844 4521.929688 2718.871094 4522.53125 1987.851562 C 4522.859375 1577.808594 4523.199219 1153.820312 4476.800781 816.101562 C 4424.421875 434.910156 4318.078125 220.171875 4151.691406 159.609375 C 3859.679688 53.339844 3374.03125 412 2666.910156 1256.078125 C 2105.019531 1926.789062 1613.289062 2416.929688 1205.378906 2712.898438 C 901.003906 2933.738281 646.140625 3045.089844 445.816406 3045.101562 C 410.578125 3045.101562 377.0625 3041.660156 345.222656 3034.761719 C 182.128906 2999.429688 70.066406 2875.671875 12.148438 2666.921875 C -71.824219 2364.25 -29.082031 1893.460938 126.480469 1407.539062 C 286.835938 906.628906 537.835938 469.820312 815.121094 209.101562 C 1089.601562 -48.96875 1148.429688 -334.480469 985.253906 -616.570312 C 669.402344 -1162.558594 -343.6875 -1507.359375 -841.265625 -1356.53125 C -1063.269531 -1289.230469 -1172.898438 -1133.480469 -1158.289062 -906.121094 L -1162.03125 -905.878906 C -1176.761719 -1135.179688 -1066.21875 -1292.261719 -842.351562 -1360.121094 C -592.363281 -1435.878906 -220.015625 -1393.578125 153.699219 -1246.949219 C 334.929688 -1175.851562 505.320312 -1083.488281 646.464844 -979.871094 C 799.816406 -867.28125 914.894531 -745.679688 988.5 -618.441406 C 1102.96875 -420.570312 1166.261719 -115.890625 817.691406 211.828125 C 246.171875 749.210938 -166.03125 2010.660156 15.761719 2665.921875 C 73.277344 2873.21875 184.390625 2996.078125 346.015625 3031.101562 C 557.765625 3076.960938 846.160156 2968.898438 1203.171875 2709.859375 C 1610.839844 2414.082031 2102.339844 1924.148438 2664.03125 1253.679688 C 3372.308594 408.230469 3859.339844 49.21875 4152.96875 156.078125 C 4320.789062 217.171875 4427.929688 432.890625 4480.511719 815.589844 C 4526.949219 1153.570312 4526.609375 1577.691406 4526.28125 1987.851562 C 4525.691406 2717.511719 4525.121094 3406.710938 4786.628906 3500.53125 C 4955.378906 3561.039062 5220.421875 3368.03125 5596.78125 2910.289062 L 5599.679688 2912.671875 C 5267.421875 3316.769531 5021.25 3515.058594 4850.78125 3515.058594 "/>
<path fill-rule="nonzero" fill="rgb(48.899841%, 74.951172%, 88.282776%)" fill-opacity="1" d="M 4908.140625 3568.449219 C 4884.039062 3568.449219 4861.359375 3564.679688 4840.070312 3557.160156 C 4569.621094 3461.710938 4558.320312 2776.371094 4546.359375 2050.800781 C 4539.648438 1643.671875 4532.710938 1222.671875 4479.609375 887.039062 C 4419.671875 508.179688 4307.570312 294.289062 4136.910156 233.128906 C 3839.671875 126.609375 3355.980469 473.769531 2658.210938 1294.429688 C 2102.238281 1948.320312 1613.960938 2424.941406 1206.929688 2711.058594 C 849.761719 2962.128906 559.132812 3064.699219 343.140625 3015.929688 C 254.777344 2995.980469 179.582031 2950.238281 119.640625 2879.980469 C 63.230469 2813.859375 20.101562 2725.851562 -8.539062 2618.390625 C -50.1875 2462.148438 -60.890625 2270.589844 -40.351562 2049.050781 C -20.847656 1838.648438 27.46875 1607.738281 99.371094 1381.28125 C 253.261719 896.589844 497.238281 475.550781 768.738281 226.121094 C 1037.101562 -20.429688 1094.390625 -297.410156 934.4375 -574.898438 C 613.476562 -1131.699219 -446.492188 -1504.421875 -950.539062 -1346.96875 C -1161.320312 -1281.128906 -1263.148438 -1130.699219 -1245.039062 -911.949219 L -1248.769531 -911.640625 C -1267.050781 -1132.351562 -1164.308594 -1284.128906 -951.65625 -1350.550781 C -826.300781 -1389.71875 -663.136719 -1398.078125 -479.804688 -1374.769531 C -304.167969 -1352.429688 -113.449219 -1301.761719 71.738281 -1228.25 C 260.179688 -1153.449219 437.300781 -1057.058594 583.960938 -949.519531 C 743.570312 -832.480469 862.578125 -707.070312 937.683594 -576.78125 C 1098.621094 -297.578125 1041.078125 -18.988281 771.277344 228.878906 C 500.242188 477.878906 256.644531 898.328125 102.945312 1382.410156 C -45.828125 1850.980469 -86.148438 2312.671875 -4.917969 2617.421875 C 53.730469 2837.441406 174.367188 2973.980469 343.964844 3012.269531 C 558.890625 3060.800781 848.511719 2958.421875 1204.78125 2707.988281 C 1611.539062 2422.058594 2099.578125 1945.648438 2655.351562 1292 C 3354.238281 470.03125 3839.261719 122.46875 4138.171875 229.601562 C 4310.238281 291.261719 4423.140625 506.121094 4483.308594 886.449219 C 4536.460938 1222.351562 4543.398438 1643.480469 4550.109375 2050.738281 C 4562.050781 2774.96875 4573.320312 3459.039062 4841.320312 3553.628906 C 5013.03125 3614.230469 5276.890625 3427.390625 5647.980469 2982.390625 L 5650.859375 2984.789062 C 5324.378906 3376.289062 5080.210938 3568.449219 4908.140625 3568.449219 "/>
<path fill-rule="nonzero" fill="rgb(55.885315%, 76.126099%, 83.508301%)" fill-opacity="1" d="M 4967.210938 3622.320312 C 4942.179688 3622.320312 4918.609375 3618.460938 4896.398438 3610.75 C 4619.300781 3514.570312 4596.089844 2834.03125 4571.5 2113.53125 C 4557.699219 1709.089844 4543.429688 1290.878906 4483.558594 957.171875 C 4415.96875 580.46875 4298.011719 367.328125 4122.949219 305.589844 C 3820.398438 198.890625 3338.648438 534.730469 2650.070312 1332.238281 C 2099.691406 1969.699219 1614.601562 2433.058594 1208.269531 2709.421875 C 851.667969 2951.960938 559.710938 3048.78125 340.496094 2997.191406 C 158.542969 2954.378906 30.210938 2805.820312 -30.625 2567.582031 C -70.800781 2410.238281 -81.355469 2220.601562 -61.984375 2003.921875 C -43.542969 1797.601562 2.707031 1572.820312 71.765625 1353.878906 C 219.472656 885.609375 456.53125 480.398438 722.15625 242.148438 C 984.511719 6.828125 1040.429688 -261.691406 883.867188 -534.371094 C 737.449219 -789.390625 402.683594 -1041 -11.625 -1207.429688 C -411.753906 -1368.171875 -813.371094 -1418.78125 -1059.761719 -1339.511719 C -1259.820312 -1275.140625 -1354.25 -1129.789062 -1332.828125 -919.171875 L -1336.558594 -918.789062 C -1358.179688 -1131.390625 -1262.859375 -1278.101562 -1060.910156 -1343.078125 C -935.542969 -1383.410156 -769.417969 -1391.359375 -580.484375 -1366.050781 C -399.839844 -1341.859375 -202.644531 -1288.210938 -10.226562 -1210.910156 C 185.554688 -1132.269531 369.507812 -1031.75 521.738281 -920.230469 C 687.691406 -798.671875 810.625 -669.46875 887.121094 -536.238281 C 1044.671875 -261.839844 988.492188 8.289062 724.660156 244.941406 C 459.519531 482.761719 222.851562 887.359375 75.34375 1355.011719 C -67.132812 1806.699219 -105.386719 2259.648438 -26.992188 2566.660156 C 33.476562 2803.449219 160.851562 2951.070312 341.355469 2993.550781 C 559.492188 3044.871094 850.464844 2948.238281 1206.160156 2706.320312 C 1612.21875 2430.140625 2097.070312 1967.011719 2647.230469 1329.789062 C 3336.941406 530.96875 3820.050781 194.78125 4124.199219 302.058594 C 4300.648438 364.289062 4419.398438 578.359375 4487.25 956.511719 C 4547.171875 1290.488281 4561.441406 1708.828125 4575.25 2113.410156 C 4599.789062 2832.578125 4622.96875 3511.871094 4897.628906 3607.210938 C 5072.230469 3667.789062 5335.03125 3487.101562 5700.949219 3054.699219 L 5703.808594 3057.121094 C 5383.011719 3436.199219 5140.820312 3622.320312 4967.210938 3622.320312 "/>
<path fill-rule="nonzero" fill="rgb(68.377686%, 70.057678%, 85.350037%)" fill-opacity="1" d="M 5028.058594 3676.640625 C 5002.109375 3676.640625 4977.601562 3672.691406 4954.46875 3664.800781 C 4670.539062 3567.898438 4635.308594 2891.820312 4598 2176.050781 C 4577.058594 1774.101562 4555.398438 1358.46875 4488.671875 1026.519531 C 4413.339844 651.78125 4289.410156 439.320312 4109.808594 377 C 3962.121094 325.75 3778.898438 372.761719 3549.710938 520.71875 C 3300.949219 681.308594 2995.71875 966.890625 2642.511719 1369.550781 C 2097.378906 1990.988281 1615.191406 2441.320312 1209.339844 2708.019531 C 853.152344 2942.089844 559.746094 3033.121094 337.253906 2978.558594 C 143.6875 2931.101562 8.339844 2770.578125 -54.144531 2514.371094 C -92.707031 2356.238281 -102.949219 2168.78125 -84.585938 1957.191406 C -67.050781 1755.171875 -22.714844 1536.691406 43.632812 1325.359375 C 185.429688 873.738281 415.664062 484.421875 675.296875 257.238281 C 931.785156 32.820312 986.472656 -227.289062 833.453125 -494.980469 C 684.460938 -755.628906 337.878906 -1016 -93.652344 -1191.46875 C -510.664062 -1361.039062 -922.703125 -1415.710938 -1168.96875 -1334.160156 C -1358.839844 -1271.28125 -1446.230469 -1130.761719 -1421.699219 -927.800781 L -1425.421875 -927.351562 C -1450.191406 -1132.308594 -1361.921875 -1274.210938 -1170.148438 -1337.71875 C -923.066406 -1419.539062 -510.039062 -1364.828125 -92.242188 -1194.941406 C 340.039062 -1019.171875 687.3125 -758.191406 836.710938 -496.851562 C 909.832031 -368.929688 936.40625 -242.191406 915.703125 -120.171875 C 892.960938 13.890625 812.90625 141.820312 677.769531 260.058594 C 146.300781 725.101562 -214.429688 1841.28125 -50.503906 2513.480469 C 11.628906 2768.25 146.023438 2927.808594 338.148438 2974.921875 C 559.585938 3029.21875 852.003906 2938.359375 1207.28125 2704.878906 C 1612.851562 2438.371094 2094.789062 1988.261719 2639.691406 1367.078125 C 3320.371094 591.121094 3801.628906 266.101562 4111.039062 373.460938 C 4292 436.25 4416.730469 649.628906 4492.351562 1025.78125 C 4559.128906 1357.988281 4580.800781 1773.769531 4601.75 2175.859375 C 4638.988281 2890.320312 4674.148438 3565.171875 4955.691406 3661.25 C 5133.21875 3721.808594 5394.910156 3547.140625 5755.71875 3127.179688 L 5758.558594 3129.628906 C 5443.359375 3496.5 5203.160156 3676.640625 5028.058594 3676.640625 "/>
<path fill-rule="nonzero" fill="rgb(60.523987%, 76.670837%, 84.300232%)" fill-opacity="1" d="M 5090.71875 3731.480469 C 5063.820312 3731.480469 5038.359375 3727.441406 5014.289062 3719.359375 C 4723.339844 3621.78125 4676 2949.839844 4625.890625 2238.441406 C 4597.730469 1838.78125 4568.621094 1425.5 4494.941406 1095.148438 C 4411.761719 722.199219 4281.75 510.320312 4097.460938 447.421875 C 3947.210938 396.109375 3763.03125 440.699219 3534.410156 583.691406 C 3286.421875 738.789062 2983.988281 1015.578125 2635.5 1406.371094 C 2095.289062 2012.171875 1615.730469 2449.710938 1210.148438 2706.828125 C 854.183594 2932.5 559.199219 3017.671875 333.390625 2959.980469 C 127.441406 2907.371094 -15.203125 2733.960938 -79.113281 2458.511719 C -152.171875 2143.648438 -117.863281 1719.800781 15.007812 1295.640625 C 151.191406 860.910156 374.710938 487.570312 628.25 271.359375 C 878.972656 57.539062 932.554688 -194.238281 783.203125 -456.761719 C 631.855469 -722.789062 273.355469 -991.988281 -175.78125 -1176.878906 C -610.042969 -1355.648438 -1032.488281 -1414.679688 -1278.28125 -1330.929688 C -1458.429688 -1269.539062 -1539.128906 -1133.640625 -1511.640625 -937.898438 L -1515.351562 -937.378906 C -1543.121094 -1135.128906 -1461.558594 -1272.441406 -1279.488281 -1334.480469 C -1032.871094 -1418.5 -609.414062 -1359.441406 -174.355469 -1180.351562 C 275.53125 -995.160156 634.714844 -725.339844 786.460938 -458.621094 C 857.96875 -332.929688 883.886719 -209.238281 863.488281 -91.011719 C 841.117188 38.671875 762.789062 161.550781 630.679688 274.210938 C 110.269531 718.011719 -232.902344 1779.128906 -75.460938 2457.660156 C -11.886719 2731.660156 129.8125 2904.101562 334.316406 2956.351562 C 559.097656 3013.761719 853.089844 2928.761719 1208.140625 2703.671875 C 1613.429688 2446.730469 2092.71875 2009.410156 2632.699219 1403.871094 C 3304.53125 650.5 3784.039062 336.46875 4098.671875 443.871094 C 4284.289062 507.230469 4415.109375 720 4498.601562 1094.339844 C 4572.339844 1424.960938 4601.460938 1838.371094 4629.628906 2238.179688 C 4679.648438 2948.289062 4726.910156 3619.019531 5015.488281 3715.808594 C 5195.851562 3776.328125 5456.539062 3607.550781 5812.339844 3199.878906 L 5815.160156 3202.339844 C 5505.460938 3557.199219 5267.230469 3731.480469 5090.71875 3731.480469 "/>
<path fill-rule="nonzero" fill="rgb(50.802612%, 70.289612%, 80.548096%)" fill-opacity="1" d="M 5155.199219 3786.851562 C 5127.328125 3786.851562 5100.898438 3782.71875 5075.859375 3774.46875 C 4777.691406 3676.191406 4718.148438 3008.050781 4655.109375 2300.671875 C 4619.679688 1903.078125 4583.050781 1491.960938 4502.339844 1163.050781 C 4411.199219 791.691406 4274.980469 580.308594 4085.878906 516.820312 C 3933.050781 465.511719 3747.910156 507.710938 3519.828125 645.800781 C 3272.601562 795.488281 2972.898438 1063.601562 2629.058594 1442.671875 C 2093.398438 2033.230469 1616.171875 2458.230469 1210.621094 2705.859375 C 854.699219 2923.179688 558.007812 3002.441406 328.800781 2941.441406 C 109.699219 2883.121094 -40.503906 2695.898438 -105.566406 2400 C -174.839844 2084.96875 -141.527344 1671.210938 -14.171875 1264.828125 C 49.25 1062.429688 131.488281 875.691406 230.246094 709.78125 C 334.9375 533.898438 452.921875 390.828125 580.917969 284.539062 C 826.015625 81.011719 878.636719 -162.511719 733.097656 -419.679688 C 579.65625 -690.820312 209.160156 -968.929688 -257.964844 -1163.601562 C -709.832031 -1351.921875 -1142.71875 -1415.601562 -1387.71875 -1329.78125 C -1558.648438 -1269.898438 -1633.011719 -1138.398438 -1602.730469 -949.488281 L -1606.429688 -948.898438 C -1622.300781 -1047.898438 -1610.210938 -1131.378906 -1570.5 -1197.011719 C -1533.449219 -1258.238281 -1472.371094 -1304.101562 -1388.960938 -1333.320312 C -1143.140625 -1419.429688 -709.214844 -1355.730469 -256.523438 -1167.070312 C 211.347656 -972.078125 582.519531 -693.371094 736.363281 -421.53125 C 806.179688 -298.160156 831.359375 -177.558594 811.203125 -63.089844 C 789.136719 62.25 712.464844 180.179688 583.316406 287.421875 C 26.957031 749.429688 -237.3125 1783.390625 -101.90625 2399.191406 C -37.160156 2693.628906 112.109375 2879.878906 329.765625 2937.808594 C 557.9375 2998.539062 853.652344 2919.429688 1208.671875 2702.660156 C 1613.910156 2455.21875 2090.859375 2030.449219 2626.289062 1440.148438 C 3289.421875 709.070312 3767.261719 405.878906 4087.070312 513.269531 C 4277.488281 577.199219 4414.511719 789.449219 4505.96875 1162.160156 C 4586.75 1491.339844 4623.410156 1902.609375 4658.851562 2300.339844 C 4721.769531 3006.449219 4781.199219 3673.398438 5077.03125 3770.898438 C 5260.269531 3831.300781 5519.910156 3668.371094 5870.789062 3272.828125 L 5873.589844 3275.328125 C 5569.308594 3618.339844 5333.050781 3786.851562 5155.199219 3786.851562 "/>
<path fill-rule="nonzero" fill="rgb(58.537292%, 77.362061%, 84.628296%)" fill-opacity="1" d="M 5221.558594 3842.789062 C 5192.691406 3842.789062 5165.289062 3838.570312 5139.25 3830.128906 C 4833.660156 3731.191406 4761.800781 3066.5 4685.71875 2362.789062 C 4642.941406 1967.070312 4598.699219 1557.878906 4510.851562 1230.238281 C 4411.640625 860.300781 4269.078125 649.308594 4075 585.238281 C 3921.808594 534.660156 3730.351562 575.660156 3505.941406 707.078125 C 3259.441406 851.449219 2962.429688 1111 2623.160156 1478.511719 C 2091.691406 2054.21875 1616.488281 2466.910156 1210.738281 2705.089844 C 938.179688 2865.089844 699.304688 2945.550781 497.910156 2945.558594 C 436.195312 2945.570312 378.039062 2938.011719 323.464844 2922.890625 C 90.390625 2858.261719 -67.625 2656.25 -133.496094 2338.671875 C -198.691406 2024.371094 -166.03125 1621.320312 -43.894531 1232.890625 C 83.804688 826.761719 288.796875 494.308594 533.3125 296.78125 C 772.898438 103.230469 824.683594 -132.101562 683.074219 -383.78125 C 527.792969 -659.761719 145.246094 -946.808594 -340.242188 -1151.640625 C -810.085938 -1349.871094 -1253.46875 -1418.488281 -1497.351562 -1330.699219 C -1661.910156 -1271.46875 -1728.410156 -1147.570312 -1695.011719 -962.449219 L -1698.699219 -961.78125 C -1715.960938 -1057.449219 -1706.199219 -1138.171875 -1669.679688 -1201.691406 C -1635.539062 -1261.070312 -1577.988281 -1305.660156 -1498.628906 -1334.21875 C -1253.878906 -1422.320312 -809.457031 -1353.679688 -338.785156 -1155.101562 C 147.441406 -949.949219 530.667969 -662.289062 686.34375 -385.621094 C 754.40625 -264.648438 778.789062 -147.171875 758.820312 -36.429688 C 736.992188 84.621094 661.914062 197.710938 535.671875 299.699219 C 2.203125 730.660156 -255.664062 1731.21875 -129.824219 2337.910156 C -64.253906 2654.019531 92.835938 2855.050781 324.46875 2919.269531 C 556.121094 2983.488281 853.667969 2910.359375 1208.839844 2701.859375 C 1614.269531 2463.859375 2089.179688 2051.410156 2620.398438 1475.960938 C 3274.980469 766.898438 3751.199219 474.371094 4076.179688 581.679688 C 4271.550781 646.179688 4414.910156 858.011719 4514.460938 1229.269531 C 4602.390625 1557.191406 4646.648438 1966.53125 4689.449219 2362.390625 C 4765.398438 3064.859375 4837.128906 3728.371094 5140.398438 3826.570312 C 5326.429688 3886.808594 5585.089844 3729.648438 5931.121094 3346.070312 L 5933.898438 3348.578125 C 5634.96875 3679.960938 5400.671875 3842.789062 5221.558594 3842.789062 "/>
<path fill-rule="nonzero" fill="rgb(60.049438%, 78.492737%, 84.745789%)" fill-opacity="1" d="M 5289.851562 3899.300781 C 5259.96875 3899.300781 5231.550781 3894.980469 5204.488281 3886.378906 C 4891.300781 3786.761719 4806.988281 3125.210938 4717.730469 2424.808594 C 4667.511719 2030.761719 4615.578125 1623.289062 4520.480469 1296.769531 C 4413.089844 928.050781 4264.050781 717.378906 4064.859375 652.710938 C 3909.160156 602.171875 3716.691406 640.820312 3492.761719 767.570312 C 3246.949219 906.710938 2952.570312 1157.808594 2617.789062 1513.910156 C 2090.160156 2075.148438 1616.671875 2475.730469 1210.480469 2704.53125 C 854.054688 2905.300781 553.5625 2972.53125 317.335938 2904.289062 C 189.6875 2867.429688 82.992188 2791.03125 0.21875 2677.199219 C -76.53125 2571.667969 -131.398438 2436.191406 -162.863281 2274.53125 C -223.714844 1961.910156 -191.386719 1570.230469 -74.175781 1199.910156 C 48.722656 811.628906 247.445312 494.898438 485.386719 308.078125 C 719.574219 124.199219 770.648438 -103.039062 633.078125 -349.078125 C 476.234375 -629.601562 81.574219 -925.640625 -422.640625 -1141.011719 C -652.769531 -1239.300781 -883.21875 -1310.03125 -1089.078125 -1345.539062 C -1305.929688 -1382.941406 -1485.101562 -1378.851562 -1607.230469 -1333.71875 C -1763.460938 -1275.980469 -1824.441406 -1155.921875 -1788.46875 -976.878906 L -1792.148438 -976.140625 C -1810.738281 -1068.691406 -1803.171875 -1146.808594 -1769.660156 -1208.328125 C -1738.28125 -1265.949219 -1684.070312 -1309.320312 -1608.53125 -1337.230469 C -1485.789062 -1382.601562 -1305.949219 -1386.75 -1088.441406 -1349.230469 C -882.300781 -1313.671875 -651.558594 -1242.859375 -421.167969 -1144.460938 C -186.699219 -1044.308594 32.84375 -921.601562 213.71875 -789.601562 C 409.722656 -646.558594 555.867188 -494.859375 636.351562 -350.910156 C 702.597656 -232.429688 726.128906 -118.078125 706.296875 -11.03125 C 684.648438 105.78125 611.105469 214.140625 487.703125 311.03125 C 250.347656 497.390625 52.070312 813.46875 -70.597656 1201.039062 C -187.632812 1570.78125 -219.917969 1961.789062 -159.1875 2273.820312 C -113.179688 2510.160156 7.011719 2810.769531 318.375 2900.691406 C 553.59375 2968.640625 853.117188 2901.53125 1208.640625 2701.269531 C 1614.5 2472.648438 2087.691406 2072.300781 2615.058594 1511.339844 C 3261.261719 823.988281 3735.851562 541.960938 4066.011719 649.148438 C 4266.480469 714.21875 4416.308594 925.71875 4524.078125 1295.71875 C 4619.269531 1622.53125 4671.210938 2030.140625 4721.449219 2424.339844 C 4810.550781 3123.511719 4894.710938 3783.910156 5205.628906 3882.808594 C 5394.441406 3942.851562 5652.121094 3791.351562 5993.371094 3419.601562 L 5996.128906 3422.140625 C 5702.449219 3742.050781 5470.128906 3899.300781 5289.851562 3899.300781 "/>
<path fill-rule="nonzero" fill="rgb(43.267822%, 49.108887%, 78.010559%)" fill-opacity="1" d="M 5360.078125 3956.421875 C 5329.179688 3956.421875 5299.71875 3952.019531 5271.621094 3943.238281 C 4950.601562 3842.949219 4853.699219 3184.191406 4751.121094 2486.75 C 4693.378906 2094.160156 4633.660156 1688.199219 4531.199219 1362.628906 C 4415.480469 994.960938 4259.839844 784.511719 4055.371094 719.25 C 3897.230469 668.761719 3703.730469 705.109375 3480.261719 827.261719 C 3235.160156 961.238281 2943.371094 1204.019531 2613.011719 1548.859375 C 2088.820312 2096.011719 1616.71875 2484.71875 1209.808594 2704.191406 C 852.808594 2896.730469 550.175781 2957.789062 310.335938 2885.640625 C 174.804688 2844.871094 61.925781 2761.769531 -25.164062 2638.648438 C -105.71875 2524.78125 -162.414062 2379.730469 -193.667969 2207.550781 C -249.921875 1897.679688 -217.609375 1518.019531 -105.015625 1165.921875 C 13.378906 795.679688 205.929688 494.699219 437.171875 318.421875 C 669.339844 141.441406 718.445312 -71.851562 583.128906 -315.539062 C 425.007812 -600.28125 18.152344 -905.359375 -505.210938 -1131.621094 C -743.320312 -1234.558594 -980.773438 -1309.171875 -1191.898438 -1347.378906 C -1414.601562 -1387.679688 -1596.359375 -1384.699219 -1717.519531 -1338.761719 C -1865.851562 -1282.5 -1921.589844 -1166.101562 -1883.191406 -992.800781 L -1886.851562 -991.988281 C -1906.710938 -1081.589844 -1901.230469 -1157.25 -1870.558594 -1216.871094 C -1841.78125 -1272.808594 -1790.738281 -1315 -1718.851562 -1342.261719 C -1597.058594 -1388.449219 -1414.621094 -1391.5 -1191.230469 -1351.070312 C -979.828125 -1312.808594 -742.09375 -1238.109375 -503.722656 -1135.058594 C -261.085938 -1030.160156 -34.128906 -902.730469 152.617188 -766.539062 C 355.308594 -618.71875 505.3125 -463.390625 586.40625 -317.351562 C 650.773438 -201.441406 673.394531 -90.25 653.644531 13.128906 C 632.125 125.738281 560.058594 229.460938 439.445312 321.398438 C -71.140625 710.640625 -298.230469 1610.570312 -189.980469 2206.878906 C -125.054688 2564.539062 53.011719 2804.320312 311.414062 2882.039062 C 550.273438 2953.898438 851.9375 2892.949219 1208.03125 2700.890625 C 1614.589844 2481.609375 2086.390625 2093.140625 2610.308594 1546.261719 C 3248.230469 880.378906 3721.308594 608.660156 4056.511719 715.679688 C 4262.21875 781.339844 4418.660156 992.589844 4534.78125 1361.511719 C 4637.328125 1687.371094 4697.070312 2093.46875 4754.828125 2486.199219 C 4857.238281 3182.441406 4953.960938 3840.078125 5272.738281 3939.660156 C 5464.28125 3999.511719 5720.988281 3853.550781 6057.550781 3493.460938 L 6060.289062 3496.019531 C 5771.800781 3804.679688 5541.441406 3956.421875 5360.078125 3956.421875 "/>
<path fill-rule="nonzero" fill="rgb(66.036987%, 68.067932%, 84.431458%)" fill-opacity="1" d="M 5432.300781 4014.191406 C 5400.359375 4014.191406 5369.839844 4009.699219 5340.671875 4000.75 C 5011.628906 3899.789062 4902.011719 3243.5 4785.949219 2548.667969 C 4720.589844 2157.351562 4653 1752.691406 4543.050781 1427.910156 C 4418.871094 1061.089844 4256.480469 850.761719 4046.578125 784.878906 C 3886 734.488281 3691.488281 768.570312 3468.460938 886.191406 C 3224.019531 1015.089844 2934.78125 1249.660156 2608.761719 1583.378906 C 2087.628906 2116.839844 1616.578125 2493.878906 1208.691406 2704.039062 C 850.90625 2888.390625 545.976562 2943.160156 302.410156 2866.859375 C 26.234375 2780.328125 -161.375 2521.410156 -225.851562 2137.769531 C -277.28125 1831.761719 -244.6875 1464.828125 -136.433594 1131.050781 C -22.265625 779.039062 164.199219 493.808594 388.613281 327.898438 C 615.542969 160.121094 664.167969 -45.488281 533.128906 -283.210938 C 376.390625 -567.558594 -53.195312 -889.550781 -587.984375 -1123.53125 C -1105.96875 -1350.160156 -1592.800781 -1437.429688 -1828.25 -1345.871094 C -1969.171875 -1291.058594 -2019.949219 -1178.121094 -1979.210938 -1010.179688 L -1982.851562 -1009.289062 C -2003.921875 -1096.128906 -2000.410156 -1169.488281 -1972.421875 -1227.320312 C -1946.121094 -1281.679688 -1898.058594 -1322.738281 -1829.601562 -1349.359375 C -1708.878906 -1396.308594 -1523.851562 -1398.140625 -1294.519531 -1354.640625 C -1077.789062 -1313.53125 -832.957031 -1234.808594 -586.484375 -1126.96875 C -335.535156 -1017.179688 -101.0625 -884.929688 91.585938 -744.53125 C 301.03125 -591.890625 454.851562 -432.988281 536.414062 -285.019531 C 598.863281 -171.730469 620.53125 -63.699219 600.820312 36.070312 C 579.382812 144.550781 508.734375 243.75 390.839844 330.921875 C -58.699219 663.269531 -333.6875 1473.539062 -222.152344 2137.148438 C -157.921875 2519.320312 28.769531 2777.199219 303.53125 2863.28125 C 546.136719 2939.269531 850.085938 2884.589844 1206.96875 2700.710938 C 1614.5 2490.730469 2085.230469 2113.929688 2606.078125 1580.761719 C 2932.359375 1246.761719 3221.921875 1011.960938 3466.710938 882.871094 C 3690.671875 764.769531 3886.140625 730.601562 4047.699219 781.308594 C 4258.820312 847.558594 4422.011719 1058.679688 4546.601562 1426.699219 C 4656.648438 1751.78125 4724.261719 2156.578125 4789.648438 2548.058594 C 4905.511719 3241.710938 5014.941406 3896.878906 5341.769531 3997.171875 C 5535.960938 4056.769531 5791.71875 3916.28125 6123.660156 3567.710938 L 6126.371094 3570.300781 C 5843 3867.871094 5614.648438 4014.191406 5432.300781 4014.191406 "/>
<path fill-rule="nonzero" fill="rgb(64.537048%, 73.670959%, 90.124512%)" fill-opacity="1" d="M 5506.570312 4072.609375 C 5473.558594 4072.609375 5441.960938 4068.039062 5411.691406 4058.910156 C 5074.421875 3957.269531 4951.910156 3303.121094 4822.210938 2610.570312 C 4749.121094 2220.289062 4673.539062 1816.738281 4555.980469 1492.570312 C 4423.191406 1126.429688 4253.890625 916.109375 4038.410156 849.609375 C 3875.441406 799.320312 3679.921875 831.179688 3457.308594 944.328125 C 3213.53125 1068.238281 2926.789062 1294.71875 2605.050781 1617.46875 C 2086.558594 2137.609375 1616.199219 2503.199219 1207.03125 2704.070312 C 848.210938 2880.21875 540.835938 2928.609375 293.425781 2847.898438 C 0.03125 2752.179688 -196.296875 2474.300781 -259.386719 2065.449219 C -305.828125 1764.46875 -272.699219 1410.910156 -168.496094 1095.410156 C -58.28125 761.71875 122.183594 492.160156 339.660156 336.390625 C 561.46875 177.53125 609.722656 -20.460938 483.078125 -252.089844 C 325.691406 -539.949219 -116.496094 -871.238281 -670.925781 -1116.660156 C -1208.078125 -1354.441406 -1706.019531 -1447.96875 -1939.480469 -1354.949219 C -2073.429688 -1301.578125 -2119.550781 -1191.910156 -2076.558594 -1028.988281 L -2080.179688 -1028.03125 C -2123.738281 -1193.078125 -2076.859375 -1304.25 -1940.859375 -1358.429688 C -1821.300781 -1406.078125 -1633.691406 -1406.558594 -1398.320312 -1359.839844 C -1176.171875 -1315.75 -924.117188 -1232.839844 -669.40625 -1120.089844 C -409.996094 -1005.261719 -167.910156 -868.121094 30.675781 -723.5 C 246.925781 -566.011719 404.5 -403.621094 486.367188 -253.890625 C 546.839844 -143.289062 567.5 -38.449219 547.773438 57.730469 C 526.359375 162.128906 457.074219 256.910156 341.84375 339.441406 C -145.027344 688.171875 -344.296875 1490.578125 -255.679688 2064.878906 C -192.816406 2472.261719 2.609375 2749.078125 294.589844 2844.328125 C 541.03125 2924.730469 847.46875 2876.398438 1205.378906 2700.699219 C 1614.171875 2500.019531 2084.191406 2134.671875 2602.390625 1614.828125 C 2924.410156 1291.789062 3211.480469 1065.078125 3455.609375 940.988281 C 3679.109375 827.390625 3875.570312 795.429688 4039.519531 846.03125 C 4256.199219 912.898438 4426.289062 1123.96875 4559.5 1491.289062 C 4677.171875 1815.738281 4752.78125 2219.460938 4825.898438 2609.878906 C 4955.378906 3301.28125 5077.691406 3954.328125 5412.78125 4055.328125 C 5609.601562 4114.640625 5864.398438 3979.539062 6191.78125 3642.328125 L 6194.46875 3644.941406 C 5916.148438 3931.621094 5689.808594 4072.609375 5506.570312 4072.609375 "/>
<path fill-rule="nonzero" fill="rgb(61.451721%, 87.379456%, 93.032837%)" fill-opacity="1" d="M 5582.929688 4131.730469 C 5548.820312 4131.730469 5516.128906 4127.070312 5484.730469 4117.769531 C 5139.03125 4015.421875 5003.460938 3363.101562 4859.941406 2672.480469 C 4779.011719 2283.050781 4695.320312 1880.371094 4570.011719 1556.660156 C 4428.460938 1191 4252.121094 980.609375 4030.890625 913.460938 C 3865.53125 863.269531 3669.03125 892.96875 3446.828125 1001.71875 C 3203.699219 1120.710938 2919.421875 1339.21875 2601.890625 1651.171875 C 2085.621094 2158.378906 1615.570312 2512.691406 1204.808594 2704.28125 C 844.714844 2872.230469 534.675781 2914.101562 283.332031 2828.710938 C 121.988281 2773.898438 -10.851562 2667.789062 -111.503906 2513.332031 C -202.703125 2373.378906 -265.867188 2192.671875 -294.175781 1990.75 C -336.105469 1691.671875 -303.078125 1360.828125 -201.175781 1059.171875 C -94.65625 743.839844 79.90625 489.851562 290.359375 344 C 507.148438 193.75 555.105469 3.25 432.90625 -222.210938 C 275.152344 -513.261719 -179.699219 -853.851562 -754.148438 -1111.070312 C -1310.839844 -1360.351562 -1820.011719 -1460.449219 -2051.320312 -1366.089844 C -2178.71875 -1314.121094 -2220.429688 -1207.53125 -2175.269531 -1049.300781 L -2178.878906 -1048.269531 C -2224.640625 -1208.648438 -2182.199219 -1316.75 -2052.738281 -1369.558594 C -1820.53125 -1464.289062 -1310.199219 -1364.171875 -752.617188 -1114.488281 C -484.589844 -994.480469 -234.792969 -852.359375 -30.234375 -703.5 C 192.886719 -541.140625 354.175781 -375.328125 436.203125 -223.988281 C 494.660156 -116.140625 514.277344 -14.480469 494.507812 78.160156 C 473.078125 178.550781 405.113281 269.03125 292.492188 347.078125 C -130.109375 639.96875 -380.730469 1346.378906 -290.464844 1990.230469 C -229.746094 2423.300781 -25.542969 2719.820312 284.539062 2825.160156 C 534.941406 2910.230469 844.03125 2868.421875 1203.230469 2700.878906 C 1613.601562 2509.46875 2083.300781 2155.398438 2599.261719 1648.5 C 2917.089844 1336.269531 3201.699219 1117.519531 3445.179688 998.351562 C 3668.269531 889.171875 3865.699219 859.410156 4031.980469 909.871094 C 4254.378906 977.371094 4431.519531 1188.5 4573.511719 1555.308594 C 4698.929688 1879.308594 4782.648438 2282.140625 4863.609375 2671.710938 C 5006.898438 3361.210938 5142.238281 4012.460938 5485.800781 4114.179688 C 5685.128906 4173.191406 5938.988281 4043.390625 6261.871094 3717.378906 L 6264.539062 3720.019531 C 5991.238281 3995.960938 5766.929688 4131.730469 5582.929688 4131.730469 "/>
<path fill-rule="nonzero" fill="rgb(63.088989%, 80.244446%, 86.143494%)" fill-opacity="1" d="M 5661.410156 4191.558594 C 5626.191406 4191.558594 5592.359375 4186.808594 5559.808594 4177.351562 C 5205.460938 4074.28125 5056.648438 3423.449219 4899.109375 2734.410156 C 4810.21875 2345.640625 4718.300781 1943.640625 4585.109375 1620.21875 C 4434.640625 1254.859375 4251.078125 1044.289062 4023.949219 976.46875 C 3856.269531 926.410156 3658.789062 953.96875 3436.988281 1058.390625 C 3194.511719 1172.550781 2912.660156 1383.199219 2599.261719 1684.511719 C 2084.78125 2179.140625 1614.679688 2522.371094 1202.011719 2704.660156 C 970.710938 2806.820312 759.308594 2858.039062 570.179688 2858.050781 C 463.605469 2858.058594 364.136719 2841.800781 272.078125 2809.238281 C 101.503906 2748.910156 -38.375 2634.191406 -143.671875 2468.28125 C -238.921875 2318.210938 -303.390625 2126.558594 -330.117188 1914.039062 C -366.785156 1622.480469 -332.832031 1305.851562 -234.515625 1022.480469 C -131.460938 725.449219 37.28125 486.859375 240.628906 350.648438 C 452.527344 208.71875 500.289062 25.621094 382.59375 -193.578125 C 193.980469 -544.859375 -371.429688 -895.609375 -837.675781 -1106.71875 C -1414.328125 -1367.828125 -1934.898438 -1474.789062 -2163.898438 -1379.21875 C -2285.140625 -1328.621094 -2322.648438 -1224.960938 -2275.410156 -1071.121094 L -2278.988281 -1070.019531 C -2326.898438 -1226.019531 -2288.660156 -1331.210938 -2165.339844 -1382.679688 C -1935.429688 -1478.628906 -1413.679688 -1371.648438 -836.128906 -1110.140625 C -559.320312 -984.808594 -301.707031 -837.628906 -91.128906 -684.53125 C 138.921875 -517.269531 303.875 -348.121094 385.898438 -195.359375 C 442.308594 -90.300781 460.839844 8.179688 440.980469 97.320312 C 419.496094 193.761719 352.789062 280.039062 242.714844 353.761719 C -159.667969 623.289062 -404.328125 1293.859375 -326.394531 1913.578125 C -269.519531 2365.839844 -50.925781 2691.011719 273.328125 2805.710938 C 527.820312 2895.730469 839.765625 2860.570312 1200.488281 2701.21875 C 1612.761719 2519.109375 2082.5 2176.128906 2596.660156 1681.800781 C 2910.351562 1380.21875 3192.539062 1169.328125 3435.390625 1055 C 3658.058594 950.171875 3856.441406 922.539062 4025.019531 972.878906 C 4253.308594 1041.039062 4437.648438 1252.320312 4588.578125 1618.789062 C 4721.890625 1942.5 4813.839844 2344.660156 4902.761719 2733.570312 C 5060.058594 3421.511719 5208.628906 4071.289062 5560.859375 4173.75 C 5762.648438 4232.460938 6015.558594 4107.851562 6334.039062 3792.878906 L 6336.671875 3795.539062 C 6068.308594 4060.960938 5846.078125 4191.558594 5661.410156 4191.558594 "/>
<path fill-rule="nonzero" fill="rgb(64.402771%, 66.300964%, 83.551025%)" fill-opacity="1" d="M 5742.078125 4252.191406 C 5705.710938 4252.191406 5670.71875 4247.351562 5636.980469 4237.699219 C 5273.78125 4133.878906 5111.539062 3484.21875 4939.761719 2796.410156 C 4842.789062 2408.101562 4742.511719 2006.570312 4601.28125 1683.269531 C 4441.71875 1318.019531 4250.789062 1107.160156 4017.589844 1038.640625 C 3847.640625 988.699219 3649.199219 1014.179688 3427.789062 1114.328125 C 3185.960938 1223.71875 2906.5 1426.640625 2597.171875 1717.449219 C 2084.011719 2199.890625 1613.429688 2532.210938 1198.480469 2705.171875 C 975.40625 2798.160156 770.175781 2844.738281 584.9375 2844.75 C 468.367188 2844.761719 359.746094 2826.320312 259.46875 2789.390625 C 79.433594 2723.089844 -67.597656 2599.359375 -177.550781 2421.640625 C -276.871094 2261.109375 -342.433594 2058.519531 -367.152344 1835.789062 C -398.546875 1552.878906 -363.53125 1250.941406 -268.550781 985.578125 C -167.285156 702.671875 -8.550781 485.109375 190.507812 356.421875 C 397.632812 222.519531 445.269531 46.671875 332.105469 -166.230469 C 143.800781 -520.480469 -438.957031 -882.738281 -921.546875 -1103.628906 C -1201.570312 -1231.800781 -1475.75 -1328.019531 -1714.460938 -1381.878906 C -1967.75 -1439.039062 -2162.359375 -1443.339844 -2277.261719 -1394.328125 C -2392.71875 -1345.078125 -2426.269531 -1244.179688 -2377 -1094.429688 L -2380.558594 -1093.261719 C -2430.550781 -1245.171875 -2396.289062 -1347.628906 -2278.730469 -1397.78125 C -2163.109375 -1447.101562 -1967.691406 -1442.871094 -1713.628906 -1385.539062 C -1474.679688 -1331.621094 -1200.238281 -1235.308594 -919.984375 -1107.03125 C -436.835938 -885.890625 146.675781 -523.070312 335.414062 -167.988281 C 389.753906 -65.761719 407.179688 29.539062 387.199219 115.25 C 365.625 207.808594 300.136719 290.011719 192.542969 359.570312 C -196.589844 611.140625 -430.40625 1231.800781 -363.425781 1835.371094 C -310.4375 2312.851562 -82.929688 2659.300781 260.761719 2785.871094 C 519.480469 2881.148438 834.488281 2852.828125 1197.039062 2701.710938 C 1611.570312 2528.917969 2081.78125 2196.851562 2594.609375 1714.71875 C 2904.238281 1423.621094 3184.039062 1220.480469 3426.25 1110.921875 C 3648.488281 1010.378906 3847.800781 984.851562 4018.640625 1035.039062 C 4252.980469 1103.890625 4444.679688 1315.441406 4604.710938 1681.769531 C 4746.070312 2005.351562 4846.390625 2407.039062 4943.398438 2795.5 C 5114.910156 3482.21875 5276.890625 4130.871094 5638.019531 4234.101562 C 5842.179688 4292.460938 6094.140625 4173.011719 6408.269531 3868.898438 L 6410.878906 3871.601562 C 6147.421875 4126.640625 5927.289062 4252.191406 5742.078125 4252.191406 "/>
<path fill-rule="nonzero" fill="rgb(45.304871%, 53.042603%, 80.180359%)" fill-opacity="1" d="M 5824.941406 4313.550781 C 5787.410156 4313.550781 5751.21875 4308.621094 5716.261719 4298.800781 C 5344.011719 4194.179688 5168.128906 3545.378906 4981.929688 2858.488281 C 4876.738281 2470.441406 4767.960938 2069.171875 4618.550781 1745.828125 C 4449.71875 1380.5 4251.269531 1169.238281 4011.828125 1099.988281 C 3839.660156 1050.191406 3640.28125 1073.589844 3419.261719 1169.539062 C 3178.089844 1274.238281 2900.980469 1469.539062 2595.640625 1750.019531 C 2083.328125 2220.640625 1611.828125 2542.210938 1194.238281 2705.800781 C 828.660156 2849.019531 509.445312 2870.300781 245.449219 2769.089844 C 55.800781 2696.390625 -98.460938 2563.300781 -213.046875 2373.53125 C -316.453125 2202.289062 -382.886719 1988.941406 -405.167969 1756.558594 C -431.363281 1483.371094 -395.195312 1196.46875 -303.335938 948.710938 C -205.15625 683.929688 -51.867188 480.78125 139.953125 361.238281 C 342.414062 235.078125 389.992188 66.371094 281.367188 -140.199219 C 93.742188 -496.980469 -506.570312 -870.859375 -1005.808594 -1101.78125 C -1290.511719 -1233.46875 -1580.050781 -1337.160156 -1821.070312 -1393.761719 C -2080.78125 -1454.738281 -2278.011719 -1460.851562 -2391.441406 -1411.410156 C -2501.460938 -1363.46875 -2531.261719 -1265.160156 -2479.988281 -1119.238281 L -2483.53125 -1118 C -2535.558594 -1266.101562 -2505.078125 -1365.980469 -2392.941406 -1414.851562 C -2278.761719 -1464.609375 -2080.710938 -1458.570312 -1820.210938 -1397.410156 C -1578.949219 -1340.75 -1289.160156 -1236.96875 -1004.238281 -1105.179688 C -504.441406 -874 96.628906 -499.558594 284.683594 -141.941406 C 336.945312 -42.570312 353.238281 49.570312 333.117188 131.910156 C 311.425781 220.660156 247.105469 298.890625 141.9375 364.421875 C -234.09375 598.761719 -457.539062 1171.078125 -401.433594 1756.199219 C -354.003906 2250.820312 -111.679688 2628.160156 246.789062 2765.589844 C 509.886719 2866.460938 828.1875 2845.171875 1192.871094 2702.308594 C 1610.03125 2538.890625 2081.140625 2217.570312 2593.109375 1747.261719 C 2898.75 1466.5 3176.210938 1270.96875 3417.769531 1166.101562 C 3639.621094 1069.789062 3839.828125 1046.339844 4012.871094 1096.390625 C 4253.421875 1165.960938 4452.640625 1377.878906 4621.949219 1744.25 C 4771.5 2067.878906 4880.308594 2469.300781 4985.550781 2857.511719 C 5171.460938 3543.339844 5347.070312 4191.140625 5717.269531 4295.191406 C 5923.738281 4353.199219 6174.710938 4238.800781 6484.570312 3945.390625 L 6487.148438 3948.121094 C 6228.550781 4192.980469 6010.558594 4313.550781 5824.941406 4313.550781 "/>
</svg>
